<?xml version="1.0" encoding="UTF-8" standalone="no"?>
<!DOCTYPE svg PUBLIC "-//W3C//DTD SVG 1.1//EN"
 "http://www.w3.org/Graphics/SVG/1.1/DTD/svg11.dtd">
<!-- Generated by graphviz version 14.0.2 (20251019.1705)
 -->
<!-- Pages: 1 -->
<svg width="751pt" height="815pt"
 viewBox="0.00 0.00 751.00 815.00" xmlns="http://www.w3.org/2000/svg" xmlns:xlink="http://www.w3.org/1999/xlink">
<g id="graph0" class="graph" transform="scale(1 1) rotate(0) translate(4 810.5)">
<polygon fill="white" stroke="none" points="-4,4 -4,-810.5 746.5,-810.5 746.5,4 -4,4"/>
<!-- node00000178EE2A7140 -->
<g id="node1" class="node">
<title>node00000178EE2A7140</title>
<polygon fill="#62467d" stroke="none" points="337.88,-678 337.88,-802.5 677.62,-802.5 677.62,-678 337.88,-678"/>
<polygon fill="none" stroke="black" points="339.88,-778 339.88,-800.5 675.62,-800.5 675.62,-778 339.88,-778"/>
<text xml:space="preserve" text-anchor="start" x="446.25" y="-784.2" font-family="Times New Roman,serif" font-size="14.00">[00000178EE2A7140]</text>
<polygon fill="none" stroke="black" points="339.88,-753.5 339.88,-776 502.62,-776 502.62,-753.5 339.88,-753.5"/>
<text xml:space="preserve" text-anchor="start" x="388.62" y="-759.7" font-family="Times New Roman,serif" font-size="14.00">is_valid = 1</text>
<polygon fill="none" stroke="black" points="504.62,-753.5 504.62,-776 675.62,-776 675.62,-753.5 504.62,-753.5"/>
<text xml:space="preserve" text-anchor="start" x="547" y="-759.7" font-family="Times New Roman,serif" font-size="14.00">verify_used = 0</text>
<polygon fill="none" stroke="black" points="339.88,-729 339.88,-751.5 675.62,-751.5 675.62,-729 339.88,-729"/>
<text xml:space="preserve" text-anchor="start" x="462.75" y="-735.2" font-family="Times New Roman,serif" font-size="14.00">type = operation</text>
<polygon fill="none" stroke="black" points="339.88,-704.5 339.88,-727 675.62,-727 675.62,-704.5 339.88,-704.5"/>
<text xml:space="preserve" text-anchor="start" x="489.75" y="-710.7" font-family="Times New Roman,serif" font-size="14.00">val = /</text>
<polygon fill="#ff8f18" stroke="none" points="339.88,-680 339.88,-702.5 502.62,-702.5 502.62,-680 339.88,-680"/>
<polygon fill="none" stroke="black" points="339.88,-680 339.88,-702.5 502.62,-702.5 502.62,-680 339.88,-680"/>
<text xml:space="preserve" text-anchor="start" x="342.88" y="-686.2" font-family="Times New Roman,serif" font-size="14.00">left = [00000178EE2A7200]</text>
<polygon fill="#bc5569" stroke="none" points="504.62,-680 504.62,-702.5 675.62,-702.5 675.62,-680 504.62,-680"/>
<polygon fill="none" stroke="black" points="504.62,-680 504.62,-702.5 675.62,-702.5 675.62,-680 504.62,-680"/>
<text xml:space="preserve" text-anchor="start" x="507.62" y="-686.2" font-family="Times New Roman,serif" font-size="14.00">right = [00000178EE2A75F0]</text>
</g>
<!-- node00000178EE2A7200 -->
<g id="node2" class="node">
<title>node00000178EE2A7200</title>
<polygon fill="#ff8f18" stroke="none" points="192.25,-509.5 192.25,-634 531.25,-634 531.25,-509.5 192.25,-509.5"/>
<polygon fill="none" stroke="black" points="194.25,-609.5 194.25,-632 529.25,-632 529.25,-609.5 194.25,-609.5"/>
<text xml:space="preserve" text-anchor="start" x="300.25" y="-615.7" font-family="Times New Roman,serif" font-size="14.00">[00000178EE2A7200]</text>
<polygon fill="none" stroke="black" points="194.25,-585 194.25,-607.5 357,-607.5 357,-585 194.25,-585"/>
<text xml:space="preserve" text-anchor="start" x="243" y="-591.2" font-family="Times New Roman,serif" font-size="14.00">is_valid = 1</text>
<polygon fill="none" stroke="black" points="359,-585 359,-607.5 529.25,-607.5 529.25,-585 359,-585"/>
<text xml:space="preserve" text-anchor="start" x="401" y="-591.2" font-family="Times New Roman,serif" font-size="14.00">verify_used = 0</text>
<polygon fill="none" stroke="black" points="194.25,-560.5 194.25,-583 529.25,-583 529.25,-560.5 194.25,-560.5"/>
<text xml:space="preserve" text-anchor="start" x="316.75" y="-566.7" font-family="Times New Roman,serif" font-size="14.00">type = operation</text>
<polygon fill="none" stroke="black" points="194.25,-536 194.25,-558.5 529.25,-558.5 529.25,-536 194.25,-536"/>
<text xml:space="preserve" text-anchor="start" x="341.5" y="-542.2" font-family="Times New Roman,serif" font-size="14.00">val = +</text>
<polygon fill="#1e8799" stroke="none" points="194.25,-511.5 194.25,-534 357,-534 357,-511.5 194.25,-511.5"/>
<polygon fill="none" stroke="black" points="194.25,-511.5 194.25,-534 357,-534 357,-511.5 194.25,-511.5"/>
<text xml:space="preserve" text-anchor="start" x="197.25" y="-517.7" font-family="Times New Roman,serif" font-size="14.00">left = [00000178EE2A7560]</text>
<polygon fill="#867cdb" stroke="none" points="359,-511.5 359,-534 529.25,-534 529.25,-511.5 359,-511.5"/>
<polygon fill="none" stroke="black" points="359,-511.5 359,-534 529.25,-534 529.25,-511.5 359,-511.5"/>
<text xml:space="preserve" text-anchor="start" x="362" y="-517.7" font-family="Times New Roman,serif" font-size="14.00">right = [00000178EE2A7740]</text>
</g>
<!-- node00000178EE2A7140&#45;&gt;node00000178EE2A7200 -->
<g id="edge1" class="edge">
<title>node00000178EE2A7140:left&#45;&gt;node00000178EE2A7200:top</title>
<path fill="none" stroke="red" stroke-width="3" d="M338.88,-691.25C331.2,-691.25 334.81,-679.77 339.88,-674 396.39,-609.61 472.73,-702.39 529.25,-638 530.04,-637.1 530.8,-636.06 531.48,-634.94"/>
<polygon fill="red" stroke="red" stroke-width="3" points="534.99,-634.93 530.64,-625.27 528.02,-635.54 534.99,-634.93"/>
</g>
<!-- node00000178EE2A75F0 -->
<g id="node8" class="node">
<title>node00000178EE2A75F0</title>
<polygon fill="#bc5569" stroke="none" points="565,-509.5 565,-634 734.5,-634 734.5,-509.5 565,-509.5"/>
<polygon fill="none" stroke="black" points="567,-609.5 567,-632 732.5,-632 732.5,-609.5 567,-609.5"/>
<text xml:space="preserve" text-anchor="start" x="587.88" y="-615.7" font-family="Times New Roman,serif" font-size="14.00">[00000178EE2A75F0]</text>
<polygon fill="none" stroke="black" points="567,-585 567,-607.5 638.25,-607.5 638.25,-585 567,-585"/>
<text xml:space="preserve" text-anchor="start" x="570" y="-591.2" font-family="Times New Roman,serif" font-size="14.00">is_valid = 1</text>
<polygon fill="none" stroke="black" points="640.25,-585 640.25,-607.5 732.5,-607.5 732.5,-585 640.25,-585"/>
<text xml:space="preserve" text-anchor="start" x="643.25" y="-591.2" font-family="Times New Roman,serif" font-size="14.00">verify_used = 0</text>
<polygon fill="none" stroke="black" points="567,-560.5 567,-583 732.5,-583 732.5,-560.5 567,-560.5"/>
<text xml:space="preserve" text-anchor="start" x="614.5" y="-566.7" font-family="Times New Roman,serif" font-size="14.00">type = literal</text>
<polygon fill="none" stroke="black" points="567,-536 567,-558.5 732.5,-558.5 732.5,-536 567,-536"/>
<text xml:space="preserve" text-anchor="start" x="630.25" y="-542.2" font-family="Times New Roman,serif" font-size="14.00">val = 2</text>
<polygon fill="lightgreen" stroke="none" points="567,-511.5 567,-534 638.25,-534 638.25,-511.5 567,-511.5"/>
<polygon fill="none" stroke="black" points="567,-511.5 567,-534 638.25,-534 638.25,-511.5 567,-511.5"/>
<text xml:space="preserve" text-anchor="start" x="578.62" y="-517.7" font-family="Times New Roman,serif" font-size="14.00">left = nil</text>
<polygon fill="lightgreen" stroke="none" points="640.25,-511.5 640.25,-534 732.5,-534 732.5,-511.5 640.25,-511.5"/>
<polygon fill="none" stroke="black" points="640.25,-511.5 640.25,-534 732.5,-534 732.5,-511.5 640.25,-511.5"/>
<text xml:space="preserve" text-anchor="start" x="658.62" y="-517.7" font-family="Times New Roman,serif" font-size="14.00">right = nil</text>
</g>
<!-- node00000178EE2A7140&#45;&gt;node00000178EE2A75F0 -->
<g id="edge7" class="edge">
<title>node00000178EE2A7140:right&#45;&gt;node00000178EE2A75F0:top</title>
<path fill="none" stroke="blue" stroke-width="3" d="M676.62,-691.25C684.3,-691.25 680.3,-680.09 675.62,-674 644.67,-633.65 597.96,-678.35 567,-638 566.34,-637.14 565.7,-636.19 565.1,-635.17"/>
<polygon fill="blue" stroke="blue" stroke-width="3" points="568.59,-635.48 565.72,-625.28 561.6,-635.04 568.59,-635.48"/>
</g>
<!-- node00000178EE2A7560 -->
<g id="node3" class="node">
<title>node00000178EE2A7560</title>
<polygon fill="#1e8799" stroke="none" points="45.12,-341 45.12,-465.5 386.38,-465.5 386.38,-341 45.12,-341"/>
<polygon fill="none" stroke="black" points="47.12,-441 47.12,-463.5 384.38,-463.5 384.38,-441 47.12,-441"/>
<text xml:space="preserve" text-anchor="start" x="154.25" y="-447.2" font-family="Times New Roman,serif" font-size="14.00">[00000178EE2A7560]</text>
<polygon fill="none" stroke="black" points="47.12,-416.5 47.12,-439 212.12,-439 212.12,-416.5 47.12,-416.5"/>
<text xml:space="preserve" text-anchor="start" x="97" y="-422.7" font-family="Times New Roman,serif" font-size="14.00">is_valid = 1</text>
<polygon fill="none" stroke="black" points="214.12,-416.5 214.12,-439 384.38,-439 384.38,-416.5 214.12,-416.5"/>
<text xml:space="preserve" text-anchor="start" x="256.12" y="-422.7" font-family="Times New Roman,serif" font-size="14.00">verify_used = 0</text>
<polygon fill="none" stroke="black" points="47.12,-392 47.12,-414.5 384.38,-414.5 384.38,-392 47.12,-392"/>
<text xml:space="preserve" text-anchor="start" x="170.75" y="-398.2" font-family="Times New Roman,serif" font-size="14.00">type = operation</text>
<polygon fill="none" stroke="black" points="47.12,-367.5 47.12,-390 384.38,-390 384.38,-367.5 47.12,-367.5"/>
<text xml:space="preserve" text-anchor="start" x="196.25" y="-373.7" font-family="Times New Roman,serif" font-size="14.00">val = *</text>
<polygon fill="#2d2574" stroke="none" points="47.12,-343 47.12,-365.5 212.12,-365.5 212.12,-343 47.12,-343"/>
<polygon fill="none" stroke="black" points="47.12,-343 47.12,-365.5 212.12,-365.5 212.12,-343 47.12,-343"/>
<text xml:space="preserve" text-anchor="start" x="50.12" y="-349.2" font-family="Times New Roman,serif" font-size="14.00">left = [00000178EE2A76B0]</text>
<polygon fill="#428bed" stroke="none" points="214.12,-343 214.12,-365.5 384.38,-365.5 384.38,-343 214.12,-343"/>
<polygon fill="none" stroke="black" points="214.12,-343 214.12,-365.5 384.38,-365.5 384.38,-343 214.12,-343"/>
<text xml:space="preserve" text-anchor="start" x="217.12" y="-349.2" font-family="Times New Roman,serif" font-size="14.00">right = [00000178EE2A7170]</text>
</g>
<!-- node00000178EE2A7200&#45;&gt;node00000178EE2A7560 -->
<g id="edge2" class="edge">
<title>node00000178EE2A7200:left&#45;&gt;node00000178EE2A7560:top</title>
<path fill="none" stroke="red" stroke-width="3" d="M193.25,-522.75C185.57,-522.75 189.18,-511.27 194.25,-505.5 251.01,-440.89 327.62,-534.11 384.38,-469.5 385.17,-468.6 385.92,-467.56 386.61,-466.44"/>
<polygon fill="red" stroke="red" stroke-width="3" points="390.12,-466.43 385.77,-456.77 383.15,-467.04 390.12,-466.43"/>
</g>
<!-- node00000178EE2A7740 -->
<g id="node7" class="node">
<title>node00000178EE2A7740</title>
<polygon fill="#867cdb" stroke="none" points="420,-341 420,-465.5 589.5,-465.5 589.5,-341 420,-341"/>
<polygon fill="none" stroke="black" points="422,-441 422,-463.5 587.5,-463.5 587.5,-441 422,-441"/>
<text xml:space="preserve" text-anchor="start" x="443.25" y="-447.2" font-family="Times New Roman,serif" font-size="14.00">[00000178EE2A7740]</text>
<polygon fill="none" stroke="black" points="422,-416.5 422,-439 493.25,-439 493.25,-416.5 422,-416.5"/>
<text xml:space="preserve" text-anchor="start" x="425" y="-422.7" font-family="Times New Roman,serif" font-size="14.00">is_valid = 1</text>
<polygon fill="none" stroke="black" points="495.25,-416.5 495.25,-439 587.5,-439 587.5,-416.5 495.25,-416.5"/>
<text xml:space="preserve" text-anchor="start" x="498.25" y="-422.7" font-family="Times New Roman,serif" font-size="14.00">verify_used = 0</text>
<polygon fill="none" stroke="black" points="422,-392 422,-414.5 587.5,-414.5 587.5,-392 422,-392"/>
<text xml:space="preserve" text-anchor="start" x="469.5" y="-398.2" font-family="Times New Roman,serif" font-size="14.00">type = literal</text>
<polygon fill="none" stroke="black" points="422,-367.5 422,-390 587.5,-390 587.5,-367.5 422,-367.5"/>
<text xml:space="preserve" text-anchor="start" x="485.25" y="-373.7" font-family="Times New Roman,serif" font-size="14.00">val = 1</text>
<polygon fill="lightgreen" stroke="none" points="422,-343 422,-365.5 493.25,-365.5 493.25,-343 422,-343"/>
<polygon fill="none" stroke="black" points="422,-343 422,-365.5 493.25,-365.5 493.25,-343 422,-343"/>
<text xml:space="preserve" text-anchor="start" x="433.62" y="-349.2" font-family="Times New Roman,serif" font-size="14.00">left = nil</text>
<polygon fill="lightgreen" stroke="none" points="495.25,-343 495.25,-365.5 587.5,-365.5 587.5,-343 495.25,-343"/>
<polygon fill="none" stroke="black" points="495.25,-343 495.25,-365.5 587.5,-365.5 587.5,-343 495.25,-343"/>
<text xml:space="preserve" text-anchor="start" x="513.62" y="-349.2" font-family="Times New Roman,serif" font-size="14.00">right = nil</text>
</g>
<!-- node00000178EE2A7200&#45;&gt;node00000178EE2A7740 -->
<g id="edge6" class="edge">
<title>node00000178EE2A7200:right&#45;&gt;node00000178EE2A7740:top</title>
<path fill="none" stroke="blue" stroke-width="3" d="M530.25,-522.75C537.93,-522.75 533.91,-511.6 529.25,-505.5 498.72,-465.55 452.53,-509.45 422,-469.5 421.34,-468.64 420.7,-467.68 420.1,-466.67"/>
<polygon fill="blue" stroke="blue" stroke-width="3" points="423.59,-466.98 420.72,-456.78 416.6,-466.55 423.59,-466.98"/>
</g>
<!-- node00000178EE2A76B0 -->
<g id="node4" class="node">
<title>node00000178EE2A76B0</title>
<polygon fill="#2d2574" stroke="none" points="8,-172.5 8,-297 177.5,-297 177.5,-172.5 8,-172.5"/>
<polygon fill="none" stroke="black" points="10,-272.5 10,-295 175.5,-295 175.5,-272.5 10,-272.5"/>
<text xml:space="preserve" text-anchor="start" x="30.12" y="-278.7" font-family="Times New Roman,serif" font-size="14.00">[00000178EE2A76B0]</text>
<polygon fill="none" stroke="black" points="10,-248 10,-270.5 81.25,-270.5 81.25,-248 10,-248"/>
<text xml:space="preserve" text-anchor="start" x="13" y="-254.2" font-family="Times New Roman,serif" font-size="14.00">is_valid = 1</text>
<polygon fill="none" stroke="black" points="83.25,-248 83.25,-270.5 175.5,-270.5 175.5,-248 83.25,-248"/>
<text xml:space="preserve" text-anchor="start" x="86.25" y="-254.2" font-family="Times New Roman,serif" font-size="14.00">verify_used = 0</text>
<polygon fill="none" stroke="black" points="10,-223.5 10,-246 175.5,-246 175.5,-223.5 10,-223.5"/>
<text xml:space="preserve" text-anchor="start" x="57.5" y="-229.7" font-family="Times New Roman,serif" font-size="14.00">type = literal</text>
<polygon fill="none" stroke="black" points="10,-199 10,-221.5 175.5,-221.5 175.5,-199 10,-199"/>
<text xml:space="preserve" text-anchor="start" x="73.25" y="-205.2" font-family="Times New Roman,serif" font-size="14.00">val = 5</text>
<polygon fill="lightgreen" stroke="none" points="10,-174.5 10,-197 81.25,-197 81.25,-174.5 10,-174.5"/>
<polygon fill="none" stroke="black" points="10,-174.5 10,-197 81.25,-197 81.25,-174.5 10,-174.5"/>
<text xml:space="preserve" text-anchor="start" x="21.62" y="-180.7" font-family="Times New Roman,serif" font-size="14.00">left = nil</text>
<polygon fill="lightgreen" stroke="none" points="83.25,-174.5 83.25,-197 175.5,-197 175.5,-174.5 83.25,-174.5"/>
<polygon fill="none" stroke="black" points="83.25,-174.5 83.25,-197 175.5,-197 175.5,-174.5 83.25,-174.5"/>
<text xml:space="preserve" text-anchor="start" x="101.62" y="-180.7" font-family="Times New Roman,serif" font-size="14.00">right = nil</text>
</g>
<!-- node00000178EE2A7560&#45;&gt;node00000178EE2A76B0 -->
<g id="edge3" class="edge">
<title>node00000178EE2A7560:left&#45;&gt;node00000178EE2A76B0:top</title>
<path fill="none" stroke="red" stroke-width="3" d="M129.62,-342C129.62,-314.65 163.61,-325.63 175.5,-301 175.92,-300.14 176.37,-299.22 176.82,-298.27"/>
<polygon fill="red" stroke="red" stroke-width="3" points="180.32,-298.21 176.6,-288.29 173.32,-298.36 180.32,-298.21"/>
</g>
<!-- node00000178EE2A7170 -->
<g id="node5" class="node">
<title>node00000178EE2A7170</title>
<polygon fill="#428bed" stroke="none" points="212,-172.5 212,-297 459.5,-297 459.5,-172.5 212,-172.5"/>
<polygon fill="none" stroke="black" points="214,-272.5 214,-295 457.5,-295 457.5,-272.5 214,-272.5"/>
<text xml:space="preserve" text-anchor="start" x="274.25" y="-278.7" font-family="Times New Roman,serif" font-size="14.00">[00000178EE2A7170]</text>
<polygon fill="none" stroke="black" points="214,-248 214,-270.5 285.25,-270.5 285.25,-248 214,-248"/>
<text xml:space="preserve" text-anchor="start" x="217" y="-254.2" font-family="Times New Roman,serif" font-size="14.00">is_valid = 1</text>
<polygon fill="none" stroke="black" points="287.25,-248 287.25,-270.5 457.5,-270.5 457.5,-248 287.25,-248"/>
<text xml:space="preserve" text-anchor="start" x="329.25" y="-254.2" font-family="Times New Roman,serif" font-size="14.00">verify_used = 0</text>
<polygon fill="none" stroke="black" points="214,-223.5 214,-246 457.5,-246 457.5,-223.5 214,-223.5"/>
<text xml:space="preserve" text-anchor="start" x="290.75" y="-229.7" font-family="Times New Roman,serif" font-size="14.00">type = operation</text>
<polygon fill="none" stroke="black" points="214,-199 214,-221.5 457.5,-221.5 457.5,-199 214,-199"/>
<text xml:space="preserve" text-anchor="start" x="311.75" y="-205.2" font-family="Times New Roman,serif" font-size="14.00">val = sin</text>
<polygon fill="lightgreen" stroke="none" points="214,-174.5 214,-197 285.25,-197 285.25,-174.5 214,-174.5"/>
<polygon fill="none" stroke="black" points="214,-174.5 214,-197 285.25,-197 285.25,-174.5 214,-174.5"/>
<text xml:space="preserve" text-anchor="start" x="225.62" y="-180.7" font-family="Times New Roman,serif" font-size="14.00">left = nil</text>
<polygon fill="#8ed628" stroke="none" points="287.25,-174.5 287.25,-197 457.5,-197 457.5,-174.5 287.25,-174.5"/>
<polygon fill="none" stroke="black" points="287.25,-174.5 287.25,-197 457.5,-197 457.5,-174.5 287.25,-174.5"/>
<text xml:space="preserve" text-anchor="start" x="290.25" y="-180.7" font-family="Times New Roman,serif" font-size="14.00">right = [00000178EE2A7290]</text>
</g>
<!-- node00000178EE2A7560&#45;&gt;node00000178EE2A7170 -->
<g id="edge4" class="edge">
<title>node00000178EE2A7560:right&#45;&gt;node00000178EE2A7170:top</title>
<path fill="none" stroke="blue" stroke-width="3" d="M299.25,-342C299.25,-299.96 237.4,-335.93 214,-301 213.4,-300.1 212.8,-299.12 212.22,-298.08"/>
<polygon fill="blue" stroke="blue" stroke-width="3" points="215.71,-298.46 212.75,-288.28 208.72,-298.08 215.71,-298.46"/>
</g>
<!-- node00000178EE2A7290 -->
<g id="node6" class="node">
<title>node00000178EE2A7290</title>
<polygon fill="#8ed628" stroke="none" points="287,-4 287,-128.5 456.5,-128.5 456.5,-4 287,-4"/>
<polygon fill="none" stroke="black" points="289,-104 289,-126.5 454.5,-126.5 454.5,-104 289,-104"/>
<text xml:space="preserve" text-anchor="start" x="310.25" y="-110.2" font-family="Times New Roman,serif" font-size="14.00">[00000178EE2A7290]</text>
<polygon fill="none" stroke="black" points="289,-79.5 289,-102 360.25,-102 360.25,-79.5 289,-79.5"/>
<text xml:space="preserve" text-anchor="start" x="292" y="-85.7" font-family="Times New Roman,serif" font-size="14.00">is_valid = 1</text>
<polygon fill="none" stroke="black" points="362.25,-79.5 362.25,-102 454.5,-102 454.5,-79.5 362.25,-79.5"/>
<text xml:space="preserve" text-anchor="start" x="365.25" y="-85.7" font-family="Times New Roman,serif" font-size="14.00">verify_used = 0</text>
<polygon fill="none" stroke="black" points="289,-55 289,-77.5 454.5,-77.5 454.5,-55 289,-55"/>
<text xml:space="preserve" text-anchor="start" x="336.5" y="-61.2" font-family="Times New Roman,serif" font-size="14.00">type = literal</text>
<polygon fill="none" stroke="black" points="289,-30.5 289,-53 454.5,-53 454.5,-30.5 289,-30.5"/>
<text xml:space="preserve" text-anchor="start" x="352.25" y="-36.7" font-family="Times New Roman,serif" font-size="14.00">val = 3</text>
<polygon fill="lightgreen" stroke="none" points="289,-6 289,-28.5 360.25,-28.5 360.25,-6 289,-6"/>
<polygon fill="none" stroke="black" points="289,-6 289,-28.5 360.25,-28.5 360.25,-6 289,-6"/>
<text xml:space="preserve" text-anchor="start" x="300.62" y="-12.2" font-family="Times New Roman,serif" font-size="14.00">left = nil</text>
<polygon fill="lightgreen" stroke="none" points="362.25,-6 362.25,-28.5 454.5,-28.5 454.5,-6 362.25,-6"/>
<polygon fill="none" stroke="black" points="362.25,-6 362.25,-28.5 454.5,-28.5 454.5,-6 362.25,-6"/>
<text xml:space="preserve" text-anchor="start" x="380.62" y="-12.2" font-family="Times New Roman,serif" font-size="14.00">right = nil</text>
</g>
<!-- node00000178EE2A7170&#45;&gt;node00000178EE2A7290 -->
<g id="edge5" class="edge">
<title>node00000178EE2A7170:right&#45;&gt;node00000178EE2A7290:top</title>
<path fill="none" stroke="blue" stroke-width="3" d="M372.38,-173.5C372.38,-158.8 372.05,-152.03 371.87,-141.79"/>
<polygon fill="blue" stroke="blue" stroke-width="3" points="375.37,-142.01 371.79,-132.04 368.37,-142.07 375.37,-142.01"/>
</g>
</g>
</svg>
