<?xml version="1.0" encoding="UTF-8" standalone="no"?>
<!DOCTYPE svg PUBLIC "-//W3C//DTD SVG 1.1//EN"
 "http://www.w3.org/Graphics/SVG/1.1/DTD/svg11.dtd">
<!-- Generated by graphviz version 14.0.2 (20251019.1705)
 -->
<!-- Pages: 1 -->
<svg width="580pt" height="478pt"
 viewBox="0.00 0.00 580.00 478.00" xmlns="http://www.w3.org/2000/svg" xmlns:xlink="http://www.w3.org/1999/xlink">
<g id="graph0" class="graph" transform="scale(1 1) rotate(0) translate(4 473.5)">
<polygon fill="white" stroke="none" points="-4,4 -4,-473.5 575.5,-473.5 575.5,4 -4,4"/>
<!-- node0000027244E47200 -->
<g id="node1" class="node">
<title>node0000027244E47200</title>
<polygon fill="#da02ff" stroke="none" points="69.25,-341 69.25,-465.5 402.25,-465.5 402.25,-341 69.25,-341"/>
<polygon fill="none" stroke="black" points="71.25,-441 71.25,-463.5 400.25,-463.5 400.25,-441 71.25,-441"/>
<text xml:space="preserve" text-anchor="start" x="176.5" y="-447.2" font-family="Times New Roman,serif" font-size="14.00">[0000027244E47200]</text>
<polygon fill="none" stroke="black" points="71.25,-416.5 71.25,-439 232.5,-439 232.5,-416.5 71.25,-416.5"/>
<text xml:space="preserve" text-anchor="start" x="119.25" y="-422.7" font-family="Times New Roman,serif" font-size="14.00">is_valid = 1</text>
<polygon fill="none" stroke="black" points="234.5,-416.5 234.5,-439 400.25,-439 400.25,-416.5 234.5,-416.5"/>
<text xml:space="preserve" text-anchor="start" x="274.25" y="-422.7" font-family="Times New Roman,serif" font-size="14.00">verify_used = 0</text>
<polygon fill="none" stroke="black" points="71.25,-392 71.25,-414.5 400.25,-414.5 400.25,-392 71.25,-392"/>
<text xml:space="preserve" text-anchor="start" x="190.75" y="-398.2" font-family="Times New Roman,serif" font-size="14.00">type = operation</text>
<polygon fill="none" stroke="black" points="71.25,-367.5 71.25,-390 400.25,-390 400.25,-367.5 71.25,-367.5"/>
<text xml:space="preserve" text-anchor="start" x="216.25" y="-373.7" font-family="Times New Roman,serif" font-size="14.00">val = *</text>
<polygon fill="#c74d89" stroke="none" points="71.25,-343 71.25,-365.5 232.5,-365.5 232.5,-343 71.25,-343"/>
<polygon fill="none" stroke="black" points="71.25,-343 71.25,-365.5 232.5,-365.5 232.5,-343 71.25,-343"/>
<text xml:space="preserve" text-anchor="start" x="74.25" y="-349.2" font-family="Times New Roman,serif" font-size="14.00">left = [0000027244E474A0]</text>
<polygon fill="#b5e70c" stroke="none" points="234.5,-343 234.5,-365.5 400.25,-365.5 400.25,-343 234.5,-343"/>
<polygon fill="none" stroke="black" points="234.5,-343 234.5,-365.5 400.25,-365.5 400.25,-343 234.5,-343"/>
<text xml:space="preserve" text-anchor="start" x="237.5" y="-349.2" font-family="Times New Roman,serif" font-size="14.00">right = [0000027244E47740]</text>
</g>
<!-- node0000027244E474A0 -->
<g id="node2" class="node">
<title>node0000027244E474A0</title>
<polygon fill="#c74d89" stroke="none" points="8,-172.5 8,-297 177.5,-297 177.5,-172.5 8,-172.5"/>
<polygon fill="none" stroke="black" points="10,-272.5 10,-295 175.5,-295 175.5,-272.5 10,-272.5"/>
<text xml:space="preserve" text-anchor="start" x="32" y="-278.7" font-family="Times New Roman,serif" font-size="14.00">[0000027244E474A0]</text>
<polygon fill="none" stroke="black" points="10,-248 10,-270.5 81.25,-270.5 81.25,-248 10,-248"/>
<text xml:space="preserve" text-anchor="start" x="13" y="-254.2" font-family="Times New Roman,serif" font-size="14.00">is_valid = 1</text>
<polygon fill="none" stroke="black" points="83.25,-248 83.25,-270.5 175.5,-270.5 175.5,-248 83.25,-248"/>
<text xml:space="preserve" text-anchor="start" x="86.25" y="-254.2" font-family="Times New Roman,serif" font-size="14.00">verify_used = 0</text>
<polygon fill="none" stroke="black" points="10,-223.5 10,-246 175.5,-246 175.5,-223.5 10,-223.5"/>
<text xml:space="preserve" text-anchor="start" x="57.5" y="-229.7" font-family="Times New Roman,serif" font-size="14.00">type = literal</text>
<polygon fill="none" stroke="black" points="10,-199 10,-221.5 175.5,-221.5 175.5,-199 10,-199"/>
<text xml:space="preserve" text-anchor="start" x="73.25" y="-205.2" font-family="Times New Roman,serif" font-size="14.00">val = 4</text>
<polygon fill="lightgreen" stroke="none" points="10,-174.5 10,-197 81.25,-197 81.25,-174.5 10,-174.5"/>
<polygon fill="none" stroke="black" points="10,-174.5 10,-197 81.25,-197 81.25,-174.5 10,-174.5"/>
<text xml:space="preserve" text-anchor="start" x="21.62" y="-180.7" font-family="Times New Roman,serif" font-size="14.00">left = nil</text>
<polygon fill="lightgreen" stroke="none" points="83.25,-174.5 83.25,-197 175.5,-197 175.5,-174.5 83.25,-174.5"/>
<polygon fill="none" stroke="black" points="83.25,-174.5 83.25,-197 175.5,-197 175.5,-174.5 83.25,-174.5"/>
<text xml:space="preserve" text-anchor="start" x="101.62" y="-180.7" font-family="Times New Roman,serif" font-size="14.00">right = nil</text>
</g>
<!-- node0000027244E47200&#45;&gt;node0000027244E474A0 -->
<g id="edge1" class="edge">
<title>node0000027244E47200:left&#45;&gt;node0000027244E474A0:top</title>
<path fill="none" stroke="red" stroke-width="3" d="M70.25,-354.25C62.57,-354.25 66.61,-343.12 71.25,-337 100.84,-297.92 145.91,-340.08 175.5,-301 176.15,-300.14 176.79,-299.18 177.39,-298.17"/>
<polygon fill="red" stroke="red" stroke-width="3" points="180.89,-298.05 176.78,-288.28 173.9,-298.48 180.89,-298.05"/>
</g>
<!-- node0000027244E47740 -->
<g id="node3" class="node">
<title>node0000027244E47740</title>
<polygon fill="#b5e70c" stroke="none" points="211.25,-172.5 211.25,-297 544.25,-297 544.25,-172.5 211.25,-172.5"/>
<polygon fill="none" stroke="black" points="213.25,-272.5 213.25,-295 542.25,-295 542.25,-272.5 213.25,-272.5"/>
<text xml:space="preserve" text-anchor="start" x="318.5" y="-278.7" font-family="Times New Roman,serif" font-size="14.00">[0000027244E47740]</text>
<polygon fill="none" stroke="black" points="213.25,-248 213.25,-270.5 374.5,-270.5 374.5,-248 213.25,-248"/>
<text xml:space="preserve" text-anchor="start" x="261.25" y="-254.2" font-family="Times New Roman,serif" font-size="14.00">is_valid = 1</text>
<polygon fill="none" stroke="black" points="376.5,-248 376.5,-270.5 542.25,-270.5 542.25,-248 376.5,-248"/>
<text xml:space="preserve" text-anchor="start" x="416.25" y="-254.2" font-family="Times New Roman,serif" font-size="14.00">verify_used = 0</text>
<polygon fill="none" stroke="black" points="213.25,-223.5 213.25,-246 542.25,-246 542.25,-223.5 213.25,-223.5"/>
<text xml:space="preserve" text-anchor="start" x="332.75" y="-229.7" font-family="Times New Roman,serif" font-size="14.00">type = operation</text>
<polygon fill="none" stroke="black" points="213.25,-199 213.25,-221.5 542.25,-221.5 542.25,-199 213.25,-199"/>
<text xml:space="preserve" text-anchor="start" x="357.5" y="-205.2" font-family="Times New Roman,serif" font-size="14.00">val = +</text>
<polygon fill="#a4ec79" stroke="none" points="213.25,-174.5 213.25,-197 374.5,-197 374.5,-174.5 213.25,-174.5"/>
<polygon fill="none" stroke="black" points="213.25,-174.5 213.25,-197 374.5,-197 374.5,-174.5 213.25,-174.5"/>
<text xml:space="preserve" text-anchor="start" x="216.25" y="-180.7" font-family="Times New Roman,serif" font-size="14.00">left = [0000027244E474D0]</text>
<polygon fill="#6dc778" stroke="none" points="376.5,-174.5 376.5,-197 542.25,-197 542.25,-174.5 376.5,-174.5"/>
<polygon fill="none" stroke="black" points="376.5,-174.5 376.5,-197 542.25,-197 542.25,-174.5 376.5,-174.5"/>
<text xml:space="preserve" text-anchor="start" x="379.5" y="-180.7" font-family="Times New Roman,serif" font-size="14.00">right = [0000027244E47350]</text>
</g>
<!-- node0000027244E47200&#45;&gt;node0000027244E47740 -->
<g id="edge2" class="edge">
<title>node0000027244E47200:right&#45;&gt;node0000027244E47740:top</title>
<path fill="none" stroke="blue" stroke-width="3" d="M401.25,-354.25C408.93,-354.25 405.31,-342.78 400.25,-337 344.49,-273.33 269.01,-364.67 213.25,-301 212.46,-300.1 211.7,-299.06 211.02,-297.94"/>
<polygon fill="blue" stroke="blue" stroke-width="3" points="214.48,-298.54 211.86,-288.27 207.51,-297.93 214.48,-298.54"/>
</g>
<!-- node0000027244E474D0 -->
<g id="node4" class="node">
<title>node0000027244E474D0</title>
<polygon fill="#a4ec79" stroke="none" points="190,-4 190,-128.5 359.5,-128.5 359.5,-4 190,-4"/>
<polygon fill="none" stroke="black" points="192,-104 192,-126.5 357.5,-126.5 357.5,-104 192,-104"/>
<text xml:space="preserve" text-anchor="start" x="214" y="-110.2" font-family="Times New Roman,serif" font-size="14.00">[0000027244E474D0]</text>
<polygon fill="none" stroke="black" points="192,-79.5 192,-102 263.25,-102 263.25,-79.5 192,-79.5"/>
<text xml:space="preserve" text-anchor="start" x="195" y="-85.7" font-family="Times New Roman,serif" font-size="14.00">is_valid = 1</text>
<polygon fill="none" stroke="black" points="265.25,-79.5 265.25,-102 357.5,-102 357.5,-79.5 265.25,-79.5"/>
<text xml:space="preserve" text-anchor="start" x="268.25" y="-85.7" font-family="Times New Roman,serif" font-size="14.00">verify_used = 0</text>
<polygon fill="none" stroke="black" points="192,-55 192,-77.5 357.5,-77.5 357.5,-55 192,-55"/>
<text xml:space="preserve" text-anchor="start" x="239.5" y="-61.2" font-family="Times New Roman,serif" font-size="14.00">type = literal</text>
<polygon fill="none" stroke="black" points="192,-30.5 192,-53 357.5,-53 357.5,-30.5 192,-30.5"/>
<text xml:space="preserve" text-anchor="start" x="255.25" y="-36.7" font-family="Times New Roman,serif" font-size="14.00">val = 2</text>
<polygon fill="lightgreen" stroke="none" points="192,-6 192,-28.5 263.25,-28.5 263.25,-6 192,-6"/>
<polygon fill="none" stroke="black" points="192,-6 192,-28.5 263.25,-28.5 263.25,-6 192,-6"/>
<text xml:space="preserve" text-anchor="start" x="203.62" y="-12.2" font-family="Times New Roman,serif" font-size="14.00">left = nil</text>
<polygon fill="lightgreen" stroke="none" points="265.25,-6 265.25,-28.5 357.5,-28.5 357.5,-6 265.25,-6"/>
<polygon fill="none" stroke="black" points="265.25,-6 265.25,-28.5 357.5,-28.5 357.5,-6 265.25,-6"/>
<text xml:space="preserve" text-anchor="start" x="283.62" y="-12.2" font-family="Times New Roman,serif" font-size="14.00">right = nil</text>
</g>
<!-- node0000027244E47740&#45;&gt;node0000027244E474D0 -->
<g id="edge3" class="edge">
<title>node0000027244E47740:left&#45;&gt;node0000027244E474D0:top</title>
<path fill="none" stroke="red" stroke-width="3" d="M293.88,-173.5C293.88,-139.86 340.55,-161.56 357.5,-132.5 358.04,-131.57 358.61,-130.56 359.15,-129.51"/>
<polygon fill="red" stroke="red" stroke-width="3" points="362.66,-129.62 358.71,-119.79 355.67,-129.94 362.66,-129.62"/>
</g>
<!-- node0000027244E47350 -->
<g id="node5" class="node">
<title>node0000027244E47350</title>
<polygon fill="#6dc778" stroke="none" points="394,-4 394,-128.5 563.5,-128.5 563.5,-4 394,-4"/>
<polygon fill="none" stroke="black" points="396,-104 396,-126.5 561.5,-126.5 561.5,-104 396,-104"/>
<text xml:space="preserve" text-anchor="start" x="419.5" y="-110.2" font-family="Times New Roman,serif" font-size="14.00">[0000027244E47350]</text>
<polygon fill="none" stroke="black" points="396,-79.5 396,-102 467.25,-102 467.25,-79.5 396,-79.5"/>
<text xml:space="preserve" text-anchor="start" x="399" y="-85.7" font-family="Times New Roman,serif" font-size="14.00">is_valid = 1</text>
<polygon fill="none" stroke="black" points="469.25,-79.5 469.25,-102 561.5,-102 561.5,-79.5 469.25,-79.5"/>
<text xml:space="preserve" text-anchor="start" x="472.25" y="-85.7" font-family="Times New Roman,serif" font-size="14.00">verify_used = 0</text>
<polygon fill="none" stroke="black" points="396,-55 396,-77.5 561.5,-77.5 561.5,-55 396,-55"/>
<text xml:space="preserve" text-anchor="start" x="443.5" y="-61.2" font-family="Times New Roman,serif" font-size="14.00">type = literal</text>
<polygon fill="none" stroke="black" points="396,-30.5 396,-53 561.5,-53 561.5,-30.5 396,-30.5"/>
<text xml:space="preserve" text-anchor="start" x="459.25" y="-36.7" font-family="Times New Roman,serif" font-size="14.00">val = 3</text>
<polygon fill="lightgreen" stroke="none" points="396,-6 396,-28.5 467.25,-28.5 467.25,-6 396,-6"/>
<polygon fill="none" stroke="black" points="396,-6 396,-28.5 467.25,-28.5 467.25,-6 396,-6"/>
<text xml:space="preserve" text-anchor="start" x="407.62" y="-12.2" font-family="Times New Roman,serif" font-size="14.00">left = nil</text>
<polygon fill="lightgreen" stroke="none" points="469.25,-6 469.25,-28.5 561.5,-28.5 561.5,-6 469.25,-6"/>
<polygon fill="none" stroke="black" points="469.25,-6 469.25,-28.5 561.5,-28.5 561.5,-6 469.25,-6"/>
<text xml:space="preserve" text-anchor="start" x="487.62" y="-12.2" font-family="Times New Roman,serif" font-size="14.00">right = nil</text>
</g>
<!-- node0000027244E47740&#45;&gt;node0000027244E47350 -->
<g id="edge4" class="edge">
<title>node0000027244E47740:right&#45;&gt;node0000027244E47350:top</title>
<path fill="none" stroke="blue" stroke-width="3" d="M459.38,-173.5C459.38,-139.95 412.88,-161.49 396,-132.5 395.46,-131.57 394.89,-130.55 394.35,-129.5"/>
<polygon fill="blue" stroke="blue" stroke-width="3" points="397.83,-129.93 394.79,-119.79 390.84,-129.62 397.83,-129.93"/>
</g>
</g>
</svg>
