<?xml version="1.0" encoding="UTF-8" standalone="no"?>
<!DOCTYPE svg PUBLIC "-//W3C//DTD SVG 1.1//EN"
 "http://www.w3.org/Graphics/SVG/1.1/DTD/svg11.dtd">
<!-- Generated by graphviz version 14.0.2 (20251019.1705)
 -->
<!-- Pages: 1 -->
<svg width="582pt" height="478pt"
 viewBox="0.00 0.00 582.00 478.00" xmlns="http://www.w3.org/2000/svg" xmlns:xlink="http://www.w3.org/1999/xlink">
<g id="graph0" class="graph" transform="scale(1 1) rotate(0) translate(4 473.5)">
<polygon fill="white" stroke="none" points="-4,4 -4,-473.5 577.5,-473.5 577.5,4 -4,4"/>
<!-- node000001638CA874A0 -->
<g id="node1" class="node">
<title>node000001638CA874A0</title>
<polygon fill="#b43861" stroke="none" points="69,-341 69,-465.5 406.5,-465.5 406.5,-341 69,-341"/>
<polygon fill="none" stroke="black" points="71,-441 71,-463.5 404.5,-463.5 404.5,-441 71,-441"/>
<text xml:space="preserve" text-anchor="start" x="175.12" y="-447.2" font-family="Times New Roman,serif" font-size="14.00">[000001638CA874A0]</text>
<polygon fill="none" stroke="black" points="71,-416.5 71,-439 233,-439 233,-416.5 71,-416.5"/>
<text xml:space="preserve" text-anchor="start" x="119.38" y="-422.7" font-family="Times New Roman,serif" font-size="14.00">is_valid = 1</text>
<polygon fill="none" stroke="black" points="235,-416.5 235,-439 404.5,-439 404.5,-416.5 235,-416.5"/>
<text xml:space="preserve" text-anchor="start" x="276.62" y="-422.7" font-family="Times New Roman,serif" font-size="14.00">verify_used = 0</text>
<polygon fill="none" stroke="black" points="71,-392 71,-414.5 404.5,-414.5 404.5,-392 71,-392"/>
<text xml:space="preserve" text-anchor="start" x="192.75" y="-398.2" font-family="Times New Roman,serif" font-size="14.00">type = operation</text>
<polygon fill="none" stroke="black" points="71,-367.5 71,-390 404.5,-390 404.5,-367.5 71,-367.5"/>
<text xml:space="preserve" text-anchor="start" x="218.25" y="-373.7" font-family="Times New Roman,serif" font-size="14.00">val = *</text>
<polygon fill="#091ccb" stroke="none" points="71,-343 71,-365.5 233,-365.5 233,-343 71,-343"/>
<polygon fill="none" stroke="black" points="71,-343 71,-365.5 233,-365.5 233,-343 71,-343"/>
<text xml:space="preserve" text-anchor="start" x="74" y="-349.2" font-family="Times New Roman,serif" font-size="14.00">left = [000001638CA87290]</text>
<polygon fill="#9fca7e" stroke="none" points="235,-343 235,-365.5 404.5,-365.5 404.5,-343 235,-343"/>
<polygon fill="none" stroke="black" points="235,-343 235,-365.5 404.5,-365.5 404.5,-343 235,-343"/>
<text xml:space="preserve" text-anchor="start" x="238" y="-349.2" font-family="Times New Roman,serif" font-size="14.00">right = [000001638CA87530]</text>
</g>
<!-- node000001638CA87290 -->
<g id="node2" class="node">
<title>node000001638CA87290</title>
<polygon fill="#091ccb" stroke="none" points="8,-172.5 8,-297 177.5,-297 177.5,-172.5 8,-172.5"/>
<polygon fill="none" stroke="black" points="10,-272.5 10,-295 175.5,-295 175.5,-272.5 10,-272.5"/>
<text xml:space="preserve" text-anchor="start" x="31.62" y="-278.7" font-family="Times New Roman,serif" font-size="14.00">[000001638CA87290]</text>
<polygon fill="none" stroke="black" points="10,-248 10,-270.5 81.25,-270.5 81.25,-248 10,-248"/>
<text xml:space="preserve" text-anchor="start" x="13" y="-254.2" font-family="Times New Roman,serif" font-size="14.00">is_valid = 1</text>
<polygon fill="none" stroke="black" points="83.25,-248 83.25,-270.5 175.5,-270.5 175.5,-248 83.25,-248"/>
<text xml:space="preserve" text-anchor="start" x="86.25" y="-254.2" font-family="Times New Roman,serif" font-size="14.00">verify_used = 0</text>
<polygon fill="none" stroke="black" points="10,-223.5 10,-246 175.5,-246 175.5,-223.5 10,-223.5"/>
<text xml:space="preserve" text-anchor="start" x="57.5" y="-229.7" font-family="Times New Roman,serif" font-size="14.00">type = literal</text>
<polygon fill="none" stroke="black" points="10,-199 10,-221.5 175.5,-221.5 175.5,-199 10,-199"/>
<text xml:space="preserve" text-anchor="start" x="73.25" y="-205.2" font-family="Times New Roman,serif" font-size="14.00">val = 4</text>
<polygon fill="lightgreen" stroke="none" points="10,-174.5 10,-197 81.25,-197 81.25,-174.5 10,-174.5"/>
<polygon fill="none" stroke="black" points="10,-174.5 10,-197 81.25,-197 81.25,-174.5 10,-174.5"/>
<text xml:space="preserve" text-anchor="start" x="21.62" y="-180.7" font-family="Times New Roman,serif" font-size="14.00">left = nil</text>
<polygon fill="lightgreen" stroke="none" points="83.25,-174.5 83.25,-197 175.5,-197 175.5,-174.5 83.25,-174.5"/>
<polygon fill="none" stroke="black" points="83.25,-174.5 83.25,-197 175.5,-197 175.5,-174.5 83.25,-174.5"/>
<text xml:space="preserve" text-anchor="start" x="101.62" y="-180.7" font-family="Times New Roman,serif" font-size="14.00">right = nil</text>
</g>
<!-- node000001638CA874A0&#45;&gt;node000001638CA87290 -->
<g id="edge1" class="edge">
<title>node000001638CA874A0:left&#45;&gt;node000001638CA87290:top</title>
<path fill="none" stroke="red" stroke-width="3" d="M70,-354.25C62.32,-354.25 66.36,-343.12 71,-337 100.67,-297.85 145.83,-340.15 175.5,-301 176.15,-300.14 176.79,-299.18 177.39,-298.17"/>
<polygon fill="red" stroke="red" stroke-width="3" points="180.89,-298.05 176.78,-288.28 173.9,-298.48 180.89,-298.05"/>
</g>
<!-- node000001638CA87530 -->
<g id="node3" class="node">
<title>node000001638CA87530</title>
<polygon fill="#9fca7e" stroke="none" points="211.25,-172.5 211.25,-297 550.25,-297 550.25,-172.5 211.25,-172.5"/>
<polygon fill="none" stroke="black" points="213.25,-272.5 213.25,-295 548.25,-295 548.25,-272.5 213.25,-272.5"/>
<text xml:space="preserve" text-anchor="start" x="319.62" y="-278.7" font-family="Times New Roman,serif" font-size="14.00">[000001638CA87530]</text>
<polygon fill="none" stroke="black" points="213.25,-248 213.25,-270.5 375.25,-270.5 375.25,-248 213.25,-248"/>
<text xml:space="preserve" text-anchor="start" x="261.62" y="-254.2" font-family="Times New Roman,serif" font-size="14.00">is_valid = 1</text>
<polygon fill="none" stroke="black" points="377.25,-248 377.25,-270.5 548.25,-270.5 548.25,-248 377.25,-248"/>
<text xml:space="preserve" text-anchor="start" x="419.62" y="-254.2" font-family="Times New Roman,serif" font-size="14.00">verify_used = 0</text>
<polygon fill="none" stroke="black" points="213.25,-223.5 213.25,-246 548.25,-246 548.25,-223.5 213.25,-223.5"/>
<text xml:space="preserve" text-anchor="start" x="335.75" y="-229.7" font-family="Times New Roman,serif" font-size="14.00">type = operation</text>
<polygon fill="none" stroke="black" points="213.25,-199 213.25,-221.5 548.25,-221.5 548.25,-199 213.25,-199"/>
<text xml:space="preserve" text-anchor="start" x="360.5" y="-205.2" font-family="Times New Roman,serif" font-size="14.00">val = +</text>
<polygon fill="#9ab7f1" stroke="none" points="213.25,-174.5 213.25,-197 375.25,-197 375.25,-174.5 213.25,-174.5"/>
<polygon fill="none" stroke="black" points="213.25,-174.5 213.25,-197 375.25,-197 375.25,-174.5 213.25,-174.5"/>
<text xml:space="preserve" text-anchor="start" x="216.25" y="-180.7" font-family="Times New Roman,serif" font-size="14.00">left = [000001638CA87410]</text>
<polygon fill="#e17dd7" stroke="none" points="377.25,-174.5 377.25,-197 548.25,-197 548.25,-174.5 377.25,-174.5"/>
<polygon fill="none" stroke="black" points="377.25,-174.5 377.25,-197 548.25,-197 548.25,-174.5 377.25,-174.5"/>
<text xml:space="preserve" text-anchor="start" x="380.25" y="-180.7" font-family="Times New Roman,serif" font-size="14.00">right = [000001638CA876E0]</text>
</g>
<!-- node000001638CA874A0&#45;&gt;node000001638CA87530 -->
<g id="edge2" class="edge">
<title>node000001638CA874A0:right&#45;&gt;node000001638CA87530:top</title>
<path fill="none" stroke="blue" stroke-width="3" d="M405.5,-354.25C413.18,-354.25 409.57,-342.77 404.5,-337 347.38,-272.05 270.37,-365.95 213.25,-301 212.46,-300.1 211.7,-299.06 211.02,-297.94"/>
<polygon fill="blue" stroke="blue" stroke-width="3" points="214.48,-298.54 211.86,-288.27 207.51,-297.93 214.48,-298.54"/>
</g>
<!-- node000001638CA87410 -->
<g id="node4" class="node">
<title>node000001638CA87410</title>
<polygon fill="#9ab7f1" stroke="none" points="192,-4 192,-128.5 361.5,-128.5 361.5,-4 192,-4"/>
<polygon fill="none" stroke="black" points="194,-104 194,-126.5 359.5,-126.5 359.5,-104 194,-104"/>
<text xml:space="preserve" text-anchor="start" x="215.62" y="-110.2" font-family="Times New Roman,serif" font-size="14.00">[000001638CA87410]</text>
<polygon fill="none" stroke="black" points="194,-79.5 194,-102 265.25,-102 265.25,-79.5 194,-79.5"/>
<text xml:space="preserve" text-anchor="start" x="197" y="-85.7" font-family="Times New Roman,serif" font-size="14.00">is_valid = 1</text>
<polygon fill="none" stroke="black" points="267.25,-79.5 267.25,-102 359.5,-102 359.5,-79.5 267.25,-79.5"/>
<text xml:space="preserve" text-anchor="start" x="270.25" y="-85.7" font-family="Times New Roman,serif" font-size="14.00">verify_used = 0</text>
<polygon fill="none" stroke="black" points="194,-55 194,-77.5 359.5,-77.5 359.5,-55 194,-55"/>
<text xml:space="preserve" text-anchor="start" x="241.5" y="-61.2" font-family="Times New Roman,serif" font-size="14.00">type = literal</text>
<polygon fill="none" stroke="black" points="194,-30.5 194,-53 359.5,-53 359.5,-30.5 194,-30.5"/>
<text xml:space="preserve" text-anchor="start" x="257.25" y="-36.7" font-family="Times New Roman,serif" font-size="14.00">val = 2</text>
<polygon fill="lightgreen" stroke="none" points="194,-6 194,-28.5 265.25,-28.5 265.25,-6 194,-6"/>
<polygon fill="none" stroke="black" points="194,-6 194,-28.5 265.25,-28.5 265.25,-6 194,-6"/>
<text xml:space="preserve" text-anchor="start" x="205.62" y="-12.2" font-family="Times New Roman,serif" font-size="14.00">left = nil</text>
<polygon fill="lightgreen" stroke="none" points="267.25,-6 267.25,-28.5 359.5,-28.5 359.5,-6 267.25,-6"/>
<polygon fill="none" stroke="black" points="267.25,-6 267.25,-28.5 359.5,-28.5 359.5,-6 267.25,-6"/>
<text xml:space="preserve" text-anchor="start" x="285.62" y="-12.2" font-family="Times New Roman,serif" font-size="14.00">right = nil</text>
</g>
<!-- node000001638CA87530&#45;&gt;node000001638CA87410 -->
<g id="edge3" class="edge">
<title>node000001638CA87530:left&#45;&gt;node000001638CA87410:top</title>
<path fill="none" stroke="red" stroke-width="3" d="M294.25,-173.5C294.25,-139.25 342.07,-161.98 359.5,-132.5 360.05,-131.57 360.62,-130.56 361.16,-129.51"/>
<polygon fill="red" stroke="red" stroke-width="3" points="364.67,-129.61 360.71,-119.79 357.68,-129.94 364.67,-129.61"/>
</g>
<!-- node000001638CA876E0 -->
<g id="node5" class="node">
<title>node000001638CA876E0</title>
<polygon fill="#e17dd7" stroke="none" points="396,-4 396,-128.5 565.5,-128.5 565.5,-4 396,-4"/>
<polygon fill="none" stroke="black" points="398,-104 398,-126.5 563.5,-126.5 563.5,-104 398,-104"/>
<text xml:space="preserve" text-anchor="start" x="418.88" y="-110.2" font-family="Times New Roman,serif" font-size="14.00">[000001638CA876E0]</text>
<polygon fill="none" stroke="black" points="398,-79.5 398,-102 469.25,-102 469.25,-79.5 398,-79.5"/>
<text xml:space="preserve" text-anchor="start" x="401" y="-85.7" font-family="Times New Roman,serif" font-size="14.00">is_valid = 1</text>
<polygon fill="none" stroke="black" points="471.25,-79.5 471.25,-102 563.5,-102 563.5,-79.5 471.25,-79.5"/>
<text xml:space="preserve" text-anchor="start" x="474.25" y="-85.7" font-family="Times New Roman,serif" font-size="14.00">verify_used = 0</text>
<polygon fill="none" stroke="black" points="398,-55 398,-77.5 563.5,-77.5 563.5,-55 398,-55"/>
<text xml:space="preserve" text-anchor="start" x="445.5" y="-61.2" font-family="Times New Roman,serif" font-size="14.00">type = literal</text>
<polygon fill="none" stroke="black" points="398,-30.5 398,-53 563.5,-53 563.5,-30.5 398,-30.5"/>
<text xml:space="preserve" text-anchor="start" x="461.25" y="-36.7" font-family="Times New Roman,serif" font-size="14.00">val = 3</text>
<polygon fill="lightgreen" stroke="none" points="398,-6 398,-28.5 469.25,-28.5 469.25,-6 398,-6"/>
<polygon fill="none" stroke="black" points="398,-6 398,-28.5 469.25,-28.5 469.25,-6 398,-6"/>
<text xml:space="preserve" text-anchor="start" x="409.62" y="-12.2" font-family="Times New Roman,serif" font-size="14.00">left = nil</text>
<polygon fill="lightgreen" stroke="none" points="471.25,-6 471.25,-28.5 563.5,-28.5 563.5,-6 471.25,-6"/>
<polygon fill="none" stroke="black" points="471.25,-6 471.25,-28.5 563.5,-28.5 563.5,-6 471.25,-6"/>
<text xml:space="preserve" text-anchor="start" x="489.62" y="-12.2" font-family="Times New Roman,serif" font-size="14.00">right = nil</text>
</g>
<!-- node000001638CA87530&#45;&gt;node000001638CA876E0 -->
<g id="edge4" class="edge">
<title>node000001638CA87530:right&#45;&gt;node000001638CA876E0:top</title>
<path fill="none" stroke="blue" stroke-width="3" d="M462.75,-173.5C462.75,-139.44 415.28,-161.85 398,-132.5 397.45,-131.57 396.89,-130.56 396.34,-129.51"/>
<polygon fill="blue" stroke="blue" stroke-width="3" points="399.82,-129.94 396.79,-119.79 392.83,-129.61 399.82,-129.94"/>
</g>
</g>
</svg>
