<?xml version="1.0" encoding="UTF-8" standalone="no"?>
<!DOCTYPE svg PUBLIC "-//W3C//DTD SVG 1.1//EN"
 "http://www.w3.org/Graphics/SVG/1.1/DTD/svg11.dtd">
<!-- Generated by graphviz version 14.0.2 (20251019.1705)
 -->
<!-- Pages: 1 -->
<svg width="744pt" height="815pt"
 viewBox="0.00 0.00 744.00 815.00" xmlns="http://www.w3.org/2000/svg" xmlns:xlink="http://www.w3.org/1999/xlink">
<g id="graph0" class="graph" transform="scale(1 1) rotate(0) translate(4 810.5)">
<polygon fill="white" stroke="none" points="-4,4 -4,-810.5 739.5,-810.5 739.5,4 -4,4"/>
<!-- node00000268E24174A0 -->
<g id="node1" class="node">
<title>node00000268E24174A0</title>
<polygon fill="#9b8bc8" stroke="none" points="336.38,-678 336.38,-802.5 667.12,-802.5 667.12,-678 336.38,-678"/>
<polygon fill="none" stroke="black" points="338.38,-778 338.38,-800.5 665.12,-800.5 665.12,-778 338.38,-778"/>
<text xml:space="preserve" text-anchor="start" x="441" y="-784.2" font-family="Times New Roman,serif" font-size="14.00">[00000268E24174A0]</text>
<polygon fill="none" stroke="black" points="338.38,-753.5 338.38,-776 496.62,-776 496.62,-753.5 338.38,-753.5"/>
<text xml:space="preserve" text-anchor="start" x="384.88" y="-759.7" font-family="Times New Roman,serif" font-size="14.00">is_valid = 1</text>
<polygon fill="none" stroke="black" points="498.62,-753.5 498.62,-776 665.12,-776 665.12,-753.5 498.62,-753.5"/>
<text xml:space="preserve" text-anchor="start" x="538.75" y="-759.7" font-family="Times New Roman,serif" font-size="14.00">verify_used = 0</text>
<polygon fill="none" stroke="black" points="338.38,-729 338.38,-751.5 665.12,-751.5 665.12,-729 338.38,-729"/>
<text xml:space="preserve" text-anchor="start" x="456.75" y="-735.2" font-family="Times New Roman,serif" font-size="14.00">type = operation</text>
<polygon fill="none" stroke="black" points="338.38,-704.5 338.38,-727 665.12,-727 665.12,-704.5 338.38,-704.5"/>
<text xml:space="preserve" text-anchor="start" x="483.75" y="-710.7" font-family="Times New Roman,serif" font-size="14.00">val = /</text>
<polygon fill="#df4a94" stroke="none" points="338.38,-680 338.38,-702.5 496.62,-702.5 496.62,-680 338.38,-680"/>
<polygon fill="none" stroke="black" points="338.38,-680 338.38,-702.5 496.62,-702.5 496.62,-680 338.38,-680"/>
<text xml:space="preserve" text-anchor="start" x="341.38" y="-686.2" font-family="Times New Roman,serif" font-size="14.00">left = [00000268E2417080]</text>
<polygon fill="#1c4fdf" stroke="none" points="498.62,-680 498.62,-702.5 665.12,-702.5 665.12,-680 498.62,-680"/>
<polygon fill="none" stroke="black" points="498.62,-680 498.62,-702.5 665.12,-702.5 665.12,-680 498.62,-680"/>
<text xml:space="preserve" text-anchor="start" x="501.62" y="-686.2" font-family="Times New Roman,serif" font-size="14.00">right = [00000268E24175F0]</text>
</g>
<!-- node00000268E2417080 -->
<g id="node2" class="node">
<title>node00000268E2417080</title>
<polygon fill="#df4a94" stroke="none" points="191.62,-509.5 191.62,-634 523.88,-634 523.88,-509.5 191.62,-509.5"/>
<polygon fill="none" stroke="black" points="193.62,-609.5 193.62,-632 521.88,-632 521.88,-609.5 193.62,-609.5"/>
<text xml:space="preserve" text-anchor="start" x="298.5" y="-615.7" font-family="Times New Roman,serif" font-size="14.00">[00000268E2417080]</text>
<polygon fill="none" stroke="black" points="193.62,-585 193.62,-607.5 354.12,-607.5 354.12,-585 193.62,-585"/>
<text xml:space="preserve" text-anchor="start" x="241.25" y="-591.2" font-family="Times New Roman,serif" font-size="14.00">is_valid = 1</text>
<polygon fill="none" stroke="black" points="356.12,-585 356.12,-607.5 521.88,-607.5 521.88,-585 356.12,-585"/>
<text xml:space="preserve" text-anchor="start" x="395.88" y="-591.2" font-family="Times New Roman,serif" font-size="14.00">verify_used = 0</text>
<polygon fill="none" stroke="black" points="193.62,-560.5 193.62,-583 521.88,-583 521.88,-560.5 193.62,-560.5"/>
<text xml:space="preserve" text-anchor="start" x="312.75" y="-566.7" font-family="Times New Roman,serif" font-size="14.00">type = operation</text>
<polygon fill="none" stroke="black" points="193.62,-536 193.62,-558.5 521.88,-558.5 521.88,-536 193.62,-536"/>
<text xml:space="preserve" text-anchor="start" x="337.5" y="-542.2" font-family="Times New Roman,serif" font-size="14.00">val = +</text>
<polygon fill="#07ac0f" stroke="none" points="193.62,-511.5 193.62,-534 354.12,-534 354.12,-511.5 193.62,-511.5"/>
<polygon fill="none" stroke="black" points="193.62,-511.5 193.62,-534 354.12,-534 354.12,-511.5 193.62,-511.5"/>
<text xml:space="preserve" text-anchor="start" x="196.62" y="-517.7" font-family="Times New Roman,serif" font-size="14.00">left = [00000268E24175C0]</text>
<polygon fill="#0580bf" stroke="none" points="356.12,-511.5 356.12,-534 521.88,-534 521.88,-511.5 356.12,-511.5"/>
<polygon fill="none" stroke="black" points="356.12,-511.5 356.12,-534 521.88,-534 521.88,-511.5 356.12,-511.5"/>
<text xml:space="preserve" text-anchor="start" x="359.12" y="-517.7" font-family="Times New Roman,serif" font-size="14.00">right = [00000268E2417590]</text>
</g>
<!-- node00000268E24174A0&#45;&gt;node00000268E2417080 -->
<g id="edge1" class="edge">
<title>node00000268E24174A0:left&#45;&gt;node00000268E2417080:top</title>
<path fill="none" stroke="red" stroke-width="3" d="M337.38,-691.25C329.7,-691.25 333.33,-679.79 338.38,-674 393.02,-611.38 467.23,-700.62 521.88,-638 522.66,-637.1 523.42,-636.05 524.1,-634.94"/>
<polygon fill="red" stroke="red" stroke-width="3" points="527.61,-634.94 523.27,-625.27 520.64,-635.54 527.61,-634.94"/>
</g>
<!-- node00000268E24175F0 -->
<g id="node8" class="node">
<title>node00000268E24175F0</title>
<polygon fill="#1c4fdf" stroke="none" points="558,-509.5 558,-634 727.5,-634 727.5,-509.5 558,-509.5"/>
<polygon fill="none" stroke="black" points="560,-609.5 560,-632 725.5,-632 725.5,-609.5 560,-609.5"/>
<text xml:space="preserve" text-anchor="start" x="583.12" y="-615.7" font-family="Times New Roman,serif" font-size="14.00">[00000268E24175F0]</text>
<polygon fill="none" stroke="black" points="560,-585 560,-607.5 631.25,-607.5 631.25,-585 560,-585"/>
<text xml:space="preserve" text-anchor="start" x="563" y="-591.2" font-family="Times New Roman,serif" font-size="14.00">is_valid = 1</text>
<polygon fill="none" stroke="black" points="633.25,-585 633.25,-607.5 725.5,-607.5 725.5,-585 633.25,-585"/>
<text xml:space="preserve" text-anchor="start" x="636.25" y="-591.2" font-family="Times New Roman,serif" font-size="14.00">verify_used = 0</text>
<polygon fill="none" stroke="black" points="560,-560.5 560,-583 725.5,-583 725.5,-560.5 560,-560.5"/>
<text xml:space="preserve" text-anchor="start" x="601.5" y="-566.7" font-family="Times New Roman,serif" font-size="14.00">type = variable</text>
<polygon fill="none" stroke="black" points="560,-536 560,-558.5 725.5,-558.5 725.5,-536 560,-536"/>
<text xml:space="preserve" text-anchor="start" x="619.88" y="-542.2" font-family="Times New Roman,serif" font-size="14.00">val = xy</text>
<polygon fill="lightgreen" stroke="none" points="560,-511.5 560,-534 631.25,-534 631.25,-511.5 560,-511.5"/>
<polygon fill="none" stroke="black" points="560,-511.5 560,-534 631.25,-534 631.25,-511.5 560,-511.5"/>
<text xml:space="preserve" text-anchor="start" x="571.62" y="-517.7" font-family="Times New Roman,serif" font-size="14.00">left = nil</text>
<polygon fill="lightgreen" stroke="none" points="633.25,-511.5 633.25,-534 725.5,-534 725.5,-511.5 633.25,-511.5"/>
<polygon fill="none" stroke="black" points="633.25,-511.5 633.25,-534 725.5,-534 725.5,-511.5 633.25,-511.5"/>
<text xml:space="preserve" text-anchor="start" x="651.62" y="-517.7" font-family="Times New Roman,serif" font-size="14.00">right = nil</text>
</g>
<!-- node00000268E24174A0&#45;&gt;node00000268E24175F0 -->
<g id="edge7" class="edge">
<title>node00000268E24174A0:right&#45;&gt;node00000268E24175F0:top</title>
<path fill="none" stroke="blue" stroke-width="3" d="M666.12,-691.25C673.8,-691.25 669.77,-680.12 665.12,-674 635.26,-634.67 589.86,-677.33 560,-638 559.35,-637.14 558.71,-636.18 558.11,-635.17"/>
<polygon fill="blue" stroke="blue" stroke-width="3" points="561.6,-635.48 558.72,-625.28 554.61,-635.05 561.6,-635.48"/>
</g>
<!-- node00000268E24175C0 -->
<g id="node3" class="node">
<title>node00000268E24175C0</title>
<polygon fill="#07ac0f" stroke="none" points="48.62,-341 48.62,-465.5 380.88,-465.5 380.88,-341 48.62,-341"/>
<polygon fill="none" stroke="black" points="50.62,-441 50.62,-463.5 378.88,-463.5 378.88,-441 50.62,-441"/>
<text xml:space="preserve" text-anchor="start" x="154.38" y="-447.2" font-family="Times New Roman,serif" font-size="14.00">[00000268E24175C0]</text>
<polygon fill="none" stroke="black" points="50.62,-416.5 50.62,-439 208.88,-439 208.88,-416.5 50.62,-416.5"/>
<text xml:space="preserve" text-anchor="start" x="97.12" y="-422.7" font-family="Times New Roman,serif" font-size="14.00">is_valid = 1</text>
<polygon fill="none" stroke="black" points="210.88,-416.5 210.88,-439 378.88,-439 378.88,-416.5 210.88,-416.5"/>
<text xml:space="preserve" text-anchor="start" x="251.75" y="-422.7" font-family="Times New Roman,serif" font-size="14.00">verify_used = 0</text>
<polygon fill="none" stroke="black" points="50.62,-392 50.62,-414.5 378.88,-414.5 378.88,-392 50.62,-392"/>
<text xml:space="preserve" text-anchor="start" x="169.75" y="-398.2" font-family="Times New Roman,serif" font-size="14.00">type = operation</text>
<polygon fill="none" stroke="black" points="50.62,-367.5 50.62,-390 378.88,-390 378.88,-367.5 50.62,-367.5"/>
<text xml:space="preserve" text-anchor="start" x="195.25" y="-373.7" font-family="Times New Roman,serif" font-size="14.00">val = *</text>
<polygon fill="#d9658e" stroke="none" points="50.62,-343 50.62,-365.5 208.88,-365.5 208.88,-343 50.62,-343"/>
<polygon fill="none" stroke="black" points="50.62,-343 50.62,-365.5 208.88,-365.5 208.88,-343 50.62,-343"/>
<text xml:space="preserve" text-anchor="start" x="53.62" y="-349.2" font-family="Times New Roman,serif" font-size="14.00">left = [00000268E2417230]</text>
<polygon fill="#9509e4" stroke="none" points="210.88,-343 210.88,-365.5 378.88,-365.5 378.88,-343 210.88,-343"/>
<polygon fill="none" stroke="black" points="210.88,-343 210.88,-365.5 378.88,-365.5 378.88,-343 210.88,-343"/>
<text xml:space="preserve" text-anchor="start" x="213.88" y="-349.2" font-family="Times New Roman,serif" font-size="14.00">right = [00000268E24170B0]</text>
</g>
<!-- node00000268E2417080&#45;&gt;node00000268E24175C0 -->
<g id="edge2" class="edge">
<title>node00000268E2417080:left&#45;&gt;node00000268E24175C0:top</title>
<path fill="none" stroke="red" stroke-width="3" d="M192.62,-522.75C184.95,-522.75 188.57,-511.28 193.62,-505.5 248.83,-442.35 323.67,-532.65 378.88,-469.5 379.66,-468.6 380.42,-467.55 381.1,-466.44"/>
<polygon fill="red" stroke="red" stroke-width="3" points="384.61,-466.44 380.27,-456.77 377.64,-467.04 384.61,-466.44"/>
</g>
<!-- node00000268E2417590 -->
<g id="node7" class="node">
<title>node00000268E2417590</title>
<polygon fill="#0580bf" stroke="none" points="415,-341 415,-465.5 584.5,-465.5 584.5,-341 415,-341"/>
<polygon fill="none" stroke="black" points="417,-441 417,-463.5 582.5,-463.5 582.5,-441 417,-441"/>
<text xml:space="preserve" text-anchor="start" x="440.5" y="-447.2" font-family="Times New Roman,serif" font-size="14.00">[00000268E2417590]</text>
<polygon fill="none" stroke="black" points="417,-416.5 417,-439 488.25,-439 488.25,-416.5 417,-416.5"/>
<text xml:space="preserve" text-anchor="start" x="420" y="-422.7" font-family="Times New Roman,serif" font-size="14.00">is_valid = 1</text>
<polygon fill="none" stroke="black" points="490.25,-416.5 490.25,-439 582.5,-439 582.5,-416.5 490.25,-416.5"/>
<text xml:space="preserve" text-anchor="start" x="493.25" y="-422.7" font-family="Times New Roman,serif" font-size="14.00">verify_used = 0</text>
<polygon fill="none" stroke="black" points="417,-392 417,-414.5 582.5,-414.5 582.5,-392 417,-392"/>
<text xml:space="preserve" text-anchor="start" x="464.5" y="-398.2" font-family="Times New Roman,serif" font-size="14.00">type = literal</text>
<polygon fill="none" stroke="black" points="417,-367.5 417,-390 582.5,-390 582.5,-367.5 417,-367.5"/>
<text xml:space="preserve" text-anchor="start" x="480.25" y="-373.7" font-family="Times New Roman,serif" font-size="14.00">val = 1</text>
<polygon fill="lightgreen" stroke="none" points="417,-343 417,-365.5 488.25,-365.5 488.25,-343 417,-343"/>
<polygon fill="none" stroke="black" points="417,-343 417,-365.5 488.25,-365.5 488.25,-343 417,-343"/>
<text xml:space="preserve" text-anchor="start" x="428.62" y="-349.2" font-family="Times New Roman,serif" font-size="14.00">left = nil</text>
<polygon fill="lightgreen" stroke="none" points="490.25,-343 490.25,-365.5 582.5,-365.5 582.5,-343 490.25,-343"/>
<polygon fill="none" stroke="black" points="490.25,-343 490.25,-365.5 582.5,-365.5 582.5,-343 490.25,-343"/>
<text xml:space="preserve" text-anchor="start" x="508.62" y="-349.2" font-family="Times New Roman,serif" font-size="14.00">right = nil</text>
</g>
<!-- node00000268E2417080&#45;&gt;node00000268E2417590 -->
<g id="edge6" class="edge">
<title>node00000268E2417080:right&#45;&gt;node00000268E2417590:top</title>
<path fill="none" stroke="blue" stroke-width="3" d="M522.88,-522.75C530.55,-522.75 526.52,-511.62 521.88,-505.5 492.09,-466.24 446.79,-508.76 417,-469.5 416.35,-468.64 415.71,-467.68 415.11,-466.67"/>
<polygon fill="blue" stroke="blue" stroke-width="3" points="418.6,-466.98 415.72,-456.78 411.61,-466.55 418.6,-466.98"/>
</g>
<!-- node00000268E2417230 -->
<g id="node4" class="node">
<title>node00000268E2417230</title>
<polygon fill="#d9658e" stroke="none" points="8,-172.5 8,-297 177.5,-297 177.5,-172.5 8,-172.5"/>
<polygon fill="none" stroke="black" points="10,-272.5 10,-295 175.5,-295 175.5,-272.5 10,-272.5"/>
<text xml:space="preserve" text-anchor="start" x="33.5" y="-278.7" font-family="Times New Roman,serif" font-size="14.00">[00000268E2417230]</text>
<polygon fill="none" stroke="black" points="10,-248 10,-270.5 81.25,-270.5 81.25,-248 10,-248"/>
<text xml:space="preserve" text-anchor="start" x="13" y="-254.2" font-family="Times New Roman,serif" font-size="14.00">is_valid = 1</text>
<polygon fill="none" stroke="black" points="83.25,-248 83.25,-270.5 175.5,-270.5 175.5,-248 83.25,-248"/>
<text xml:space="preserve" text-anchor="start" x="86.25" y="-254.2" font-family="Times New Roman,serif" font-size="14.00">verify_used = 0</text>
<polygon fill="none" stroke="black" points="10,-223.5 10,-246 175.5,-246 175.5,-223.5 10,-223.5"/>
<text xml:space="preserve" text-anchor="start" x="57.5" y="-229.7" font-family="Times New Roman,serif" font-size="14.00">type = literal</text>
<polygon fill="none" stroke="black" points="10,-199 10,-221.5 175.5,-221.5 175.5,-199 10,-199"/>
<text xml:space="preserve" text-anchor="start" x="73.25" y="-205.2" font-family="Times New Roman,serif" font-size="14.00">val = 5</text>
<polygon fill="lightgreen" stroke="none" points="10,-174.5 10,-197 81.25,-197 81.25,-174.5 10,-174.5"/>
<polygon fill="none" stroke="black" points="10,-174.5 10,-197 81.25,-197 81.25,-174.5 10,-174.5"/>
<text xml:space="preserve" text-anchor="start" x="21.62" y="-180.7" font-family="Times New Roman,serif" font-size="14.00">left = nil</text>
<polygon fill="lightgreen" stroke="none" points="83.25,-174.5 83.25,-197 175.5,-197 175.5,-174.5 83.25,-174.5"/>
<polygon fill="none" stroke="black" points="83.25,-174.5 83.25,-197 175.5,-197 175.5,-174.5 83.25,-174.5"/>
<text xml:space="preserve" text-anchor="start" x="101.62" y="-180.7" font-family="Times New Roman,serif" font-size="14.00">right = nil</text>
</g>
<!-- node00000268E24175C0&#45;&gt;node00000268E2417230 -->
<g id="edge3" class="edge">
<title>node00000268E24175C0:left&#45;&gt;node00000268E2417230:top</title>
<path fill="none" stroke="red" stroke-width="3" d="M129.75,-342C129.75,-314.7 163.65,-325.6 175.5,-301 175.92,-300.14 176.36,-299.22 176.82,-298.27"/>
<polygon fill="red" stroke="red" stroke-width="3" points="180.31,-298.21 176.6,-288.29 173.32,-298.36 180.31,-298.21"/>
</g>
<!-- node00000268E24170B0 -->
<g id="node5" class="node">
<title>node00000268E24170B0</title>
<polygon fill="#9509e4" stroke="none" points="211.25,-172.5 211.25,-297 454.25,-297 454.25,-172.5 211.25,-172.5"/>
<polygon fill="none" stroke="black" points="213.25,-272.5 213.25,-295 452.25,-295 452.25,-272.5 213.25,-272.5"/>
<text xml:space="preserve" text-anchor="start" x="272.38" y="-278.7" font-family="Times New Roman,serif" font-size="14.00">[00000268E24170B0]</text>
<polygon fill="none" stroke="black" points="213.25,-248 213.25,-270.5 284.5,-270.5 284.5,-248 213.25,-248"/>
<text xml:space="preserve" text-anchor="start" x="216.25" y="-254.2" font-family="Times New Roman,serif" font-size="14.00">is_valid = 1</text>
<polygon fill="none" stroke="black" points="286.5,-248 286.5,-270.5 452.25,-270.5 452.25,-248 286.5,-248"/>
<text xml:space="preserve" text-anchor="start" x="326.25" y="-254.2" font-family="Times New Roman,serif" font-size="14.00">verify_used = 0</text>
<polygon fill="none" stroke="black" points="213.25,-223.5 213.25,-246 452.25,-246 452.25,-223.5 213.25,-223.5"/>
<text xml:space="preserve" text-anchor="start" x="287.75" y="-229.7" font-family="Times New Roman,serif" font-size="14.00">type = operation</text>
<polygon fill="none" stroke="black" points="213.25,-199 213.25,-221.5 452.25,-221.5 452.25,-199 213.25,-199"/>
<text xml:space="preserve" text-anchor="start" x="308.75" y="-205.2" font-family="Times New Roman,serif" font-size="14.00">val = sin</text>
<polygon fill="lightgreen" stroke="none" points="213.25,-174.5 213.25,-197 284.5,-197 284.5,-174.5 213.25,-174.5"/>
<polygon fill="none" stroke="black" points="213.25,-174.5 213.25,-197 284.5,-197 284.5,-174.5 213.25,-174.5"/>
<text xml:space="preserve" text-anchor="start" x="224.88" y="-180.7" font-family="Times New Roman,serif" font-size="14.00">left = nil</text>
<polygon fill="#4c07b9" stroke="none" points="286.5,-174.5 286.5,-197 452.25,-197 452.25,-174.5 286.5,-174.5"/>
<polygon fill="none" stroke="black" points="286.5,-174.5 286.5,-197 452.25,-197 452.25,-174.5 286.5,-174.5"/>
<text xml:space="preserve" text-anchor="start" x="289.5" y="-180.7" font-family="Times New Roman,serif" font-size="14.00">right = [00000268E2417740]</text>
</g>
<!-- node00000268E24175C0&#45;&gt;node00000268E24170B0 -->
<g id="edge4" class="edge">
<title>node00000268E24175C0:right&#45;&gt;node00000268E24170B0:top</title>
<path fill="none" stroke="blue" stroke-width="3" d="M294.88,-342C294.88,-301.4 235.55,-334.92 213.25,-301 212.66,-300.1 212.06,-299.11 211.49,-298.07"/>
<polygon fill="blue" stroke="blue" stroke-width="3" points="214.97,-298.46 212.01,-288.28 207.98,-298.08 214.97,-298.46"/>
</g>
<!-- node00000268E2417740 -->
<g id="node6" class="node">
<title>node00000268E2417740</title>
<polygon fill="#4c07b9" stroke="none" points="284,-4 284,-128.5 453.5,-128.5 453.5,-4 284,-4"/>
<polygon fill="none" stroke="black" points="286,-104 286,-126.5 451.5,-126.5 451.5,-104 286,-104"/>
<text xml:space="preserve" text-anchor="start" x="309.5" y="-110.2" font-family="Times New Roman,serif" font-size="14.00">[00000268E2417740]</text>
<polygon fill="none" stroke="black" points="286,-79.5 286,-102 357.25,-102 357.25,-79.5 286,-79.5"/>
<text xml:space="preserve" text-anchor="start" x="289" y="-85.7" font-family="Times New Roman,serif" font-size="14.00">is_valid = 1</text>
<polygon fill="none" stroke="black" points="359.25,-79.5 359.25,-102 451.5,-102 451.5,-79.5 359.25,-79.5"/>
<text xml:space="preserve" text-anchor="start" x="362.25" y="-85.7" font-family="Times New Roman,serif" font-size="14.00">verify_used = 0</text>
<polygon fill="none" stroke="black" points="286,-55 286,-77.5 451.5,-77.5 451.5,-55 286,-55"/>
<text xml:space="preserve" text-anchor="start" x="327.5" y="-61.2" font-family="Times New Roman,serif" font-size="14.00">type = variable</text>
<polygon fill="none" stroke="black" points="286,-30.5 286,-53 451.5,-53 451.5,-30.5 286,-30.5"/>
<text xml:space="preserve" text-anchor="start" x="349.25" y="-36.7" font-family="Times New Roman,serif" font-size="14.00">val = x</text>
<polygon fill="lightgreen" stroke="none" points="286,-6 286,-28.5 357.25,-28.5 357.25,-6 286,-6"/>
<polygon fill="none" stroke="black" points="286,-6 286,-28.5 357.25,-28.5 357.25,-6 286,-6"/>
<text xml:space="preserve" text-anchor="start" x="297.62" y="-12.2" font-family="Times New Roman,serif" font-size="14.00">left = nil</text>
<polygon fill="lightgreen" stroke="none" points="359.25,-6 359.25,-28.5 451.5,-28.5 451.5,-6 359.25,-6"/>
<polygon fill="none" stroke="black" points="359.25,-6 359.25,-28.5 451.5,-28.5 451.5,-6 359.25,-6"/>
<text xml:space="preserve" text-anchor="start" x="377.62" y="-12.2" font-family="Times New Roman,serif" font-size="14.00">right = nil</text>
</g>
<!-- node00000268E24170B0&#45;&gt;node00000268E2417740 -->
<g id="edge5" class="edge">
<title>node00000268E24170B0:right&#45;&gt;node00000268E2417740:top</title>
<path fill="none" stroke="blue" stroke-width="3" d="M369.38,-173.5C369.38,-158.8 369.05,-152.03 368.87,-141.79"/>
<polygon fill="blue" stroke="blue" stroke-width="3" points="372.37,-142.01 368.79,-132.04 365.37,-142.07 372.37,-142.01"/>
</g>
</g>
</svg>
