<?xml version="1.0" encoding="UTF-8" standalone="no"?>
<!DOCTYPE svg PUBLIC "-//W3C//DTD SVG 1.1//EN"
 "http://www.w3.org/Graphics/SVG/1.1/DTD/svg11.dtd">
<!-- Generated by graphviz version 14.0.2 (20251019.1705)
 -->
<!-- Pages: 1 -->
<svg width="1657pt" height="983pt"
 viewBox="0.00 0.00 1657.00 983.00" xmlns="http://www.w3.org/2000/svg" xmlns:xlink="http://www.w3.org/1999/xlink">
<g id="graph0" class="graph" transform="scale(1 1) rotate(0) translate(4 979)">
<polygon fill="white" stroke="none" points="-4,4 -4,-979 1652.5,-979 1652.5,4 -4,4"/>
<!-- node000002AFA71C8830 -->
<g id="node1" class="node">
<title>node000002AFA71C8830</title>
<polygon fill="#8dfd41" stroke="none" points="440.62,-846.5 440.62,-971 784.88,-971 784.88,-846.5 440.62,-846.5"/>
<polygon fill="none" stroke="black" points="442.62,-946.5 442.62,-969 782.88,-969 782.88,-946.5 442.62,-946.5"/>
<text xml:space="preserve" text-anchor="start" x="550.12" y="-952.7" font-family="Times New Roman,serif" font-size="14.00">[000002AFA71C8830]</text>
<polygon fill="none" stroke="black" points="442.62,-922 442.62,-944.5 607.62,-944.5 607.62,-922 442.62,-922"/>
<text xml:space="preserve" text-anchor="start" x="492.5" y="-928.2" font-family="Times New Roman,serif" font-size="14.00">is_valid = 1</text>
<polygon fill="none" stroke="black" points="609.62,-922 609.62,-944.5 782.88,-944.5 782.88,-922 609.62,-922"/>
<text xml:space="preserve" text-anchor="start" x="653.12" y="-928.2" font-family="Times New Roman,serif" font-size="14.00">verify_used = 0</text>
<polygon fill="none" stroke="black" points="442.62,-897.5 442.62,-920 782.88,-920 782.88,-897.5 442.62,-897.5"/>
<text xml:space="preserve" text-anchor="start" x="567.75" y="-903.7" font-family="Times New Roman,serif" font-size="14.00">type = operation</text>
<polygon fill="none" stroke="black" points="442.62,-873 442.62,-895.5 782.88,-895.5 782.88,-873 442.62,-873"/>
<text xml:space="preserve" text-anchor="start" x="593.25" y="-879.2" font-family="Times New Roman,serif" font-size="14.00">val = *</text>
<polygon fill="#c47cc2" stroke="none" points="442.62,-848.5 442.62,-871 607.62,-871 607.62,-848.5 442.62,-848.5"/>
<polygon fill="none" stroke="black" points="442.62,-848.5 442.62,-871 607.62,-871 607.62,-848.5 442.62,-848.5"/>
<text xml:space="preserve" text-anchor="start" x="445.62" y="-854.7" font-family="Times New Roman,serif" font-size="14.00">left = [000002AFA71C7530]</text>
<polygon fill="#a48e81" stroke="none" points="609.62,-848.5 609.62,-871 782.88,-871 782.88,-848.5 609.62,-848.5"/>
<polygon fill="none" stroke="black" points="609.62,-848.5 609.62,-871 782.88,-871 782.88,-848.5 609.62,-848.5"/>
<text xml:space="preserve" text-anchor="start" x="612.62" y="-854.7" font-family="Times New Roman,serif" font-size="14.00">right = [000002AFA71C88F0]</text>
</g>
<!-- node000002AFA71C7530 -->
<g id="node2" class="node">
<title>node000002AFA71C7530</title>
<polygon fill="#c47cc2" stroke="none" points="229.38,-678 229.38,-802.5 578.12,-802.5 578.12,-678 229.38,-678"/>
<polygon fill="none" stroke="black" points="231.38,-778 231.38,-800.5 576.12,-800.5 576.12,-778 231.38,-778"/>
<text xml:space="preserve" text-anchor="start" x="341.12" y="-784.2" font-family="Times New Roman,serif" font-size="14.00">[000002AFA71C7530]</text>
<polygon fill="none" stroke="black" points="231.38,-753.5 231.38,-776 398.62,-776 398.62,-753.5 231.38,-753.5"/>
<text xml:space="preserve" text-anchor="start" x="282.38" y="-759.7" font-family="Times New Roman,serif" font-size="14.00">is_valid = 1</text>
<polygon fill="none" stroke="black" points="400.62,-753.5 400.62,-776 576.12,-776 576.12,-753.5 400.62,-753.5"/>
<text xml:space="preserve" text-anchor="start" x="445.25" y="-759.7" font-family="Times New Roman,serif" font-size="14.00">verify_used = 0</text>
<polygon fill="none" stroke="black" points="231.38,-729 231.38,-751.5 576.12,-751.5 576.12,-729 231.38,-729"/>
<text xml:space="preserve" text-anchor="start" x="358.75" y="-735.2" font-family="Times New Roman,serif" font-size="14.00">type = operation</text>
<polygon fill="none" stroke="black" points="231.38,-704.5 231.38,-727 576.12,-727 576.12,-704.5 231.38,-704.5"/>
<text xml:space="preserve" text-anchor="start" x="376" y="-710.7" font-family="Times New Roman,serif" font-size="14.00">val = pow</text>
<polygon fill="#e9f5cc" stroke="none" points="231.38,-680 231.38,-702.5 398.62,-702.5 398.62,-680 231.38,-680"/>
<polygon fill="none" stroke="black" points="231.38,-680 231.38,-702.5 398.62,-702.5 398.62,-680 231.38,-680"/>
<text xml:space="preserve" text-anchor="start" x="234.38" y="-686.2" font-family="Times New Roman,serif" font-size="14.00">left = [000002AFA71C73B0]</text>
<polygon fill="#a821a8" stroke="none" points="400.62,-680 400.62,-702.5 576.12,-702.5 576.12,-680 400.62,-680"/>
<polygon fill="none" stroke="black" points="400.62,-680 400.62,-702.5 576.12,-702.5 576.12,-680 400.62,-680"/>
<text xml:space="preserve" text-anchor="start" x="403.62" y="-686.2" font-family="Times New Roman,serif" font-size="14.00">right = [000002AFA71C77A0]</text>
</g>
<!-- node000002AFA71C8830&#45;&gt;node000002AFA71C7530 -->
<g id="edge1" class="edge">
<title>node000002AFA71C8830:left&#45;&gt;node000002AFA71C7530:top</title>
<path fill="none" stroke="red" stroke-width="3" d="M441.62,-859.75C433.95,-859.75 437.78,-848.46 442.62,-842.5 481.39,-794.82 537.36,-854.18 576.12,-806.5 576.81,-805.66 577.47,-804.72 578.08,-803.72"/>
<polygon fill="red" stroke="red" stroke-width="3" points="581.58,-803.53 577.42,-793.78 574.59,-803.99 581.58,-803.53"/>
</g>
<!-- node000002AFA71C88F0 -->
<g id="node7" class="node">
<title>node000002AFA71C88F0</title>
<polygon fill="#a48e81" stroke="none" points="645.88,-678 645.88,-802.5 991.62,-802.5 991.62,-678 645.88,-678"/>
<polygon fill="none" stroke="black" points="647.88,-778 647.88,-800.5 989.62,-800.5 989.62,-778 647.88,-778"/>
<text xml:space="preserve" text-anchor="start" x="755.75" y="-784.2" font-family="Times New Roman,serif" font-size="14.00">[000002AFA71C88F0]</text>
<polygon fill="none" stroke="black" points="647.88,-753.5 647.88,-776 815.12,-776 815.12,-753.5 647.88,-753.5"/>
<text xml:space="preserve" text-anchor="start" x="698.88" y="-759.7" font-family="Times New Roman,serif" font-size="14.00">is_valid = 1</text>
<polygon fill="none" stroke="black" points="817.12,-753.5 817.12,-776 989.62,-776 989.62,-753.5 817.12,-753.5"/>
<text xml:space="preserve" text-anchor="start" x="860.25" y="-759.7" font-family="Times New Roman,serif" font-size="14.00">verify_used = 0</text>
<polygon fill="none" stroke="black" points="647.88,-729 647.88,-751.5 989.62,-751.5 989.62,-729 647.88,-729"/>
<text xml:space="preserve" text-anchor="start" x="773.75" y="-735.2" font-family="Times New Roman,serif" font-size="14.00">type = operation</text>
<polygon fill="none" stroke="black" points="647.88,-704.5 647.88,-727 989.62,-727 989.62,-704.5 647.88,-704.5"/>
<text xml:space="preserve" text-anchor="start" x="798.5" y="-710.7" font-family="Times New Roman,serif" font-size="14.00">val = +</text>
<polygon fill="#b97092" stroke="none" points="647.88,-680 647.88,-702.5 815.12,-702.5 815.12,-680 647.88,-680"/>
<polygon fill="none" stroke="black" points="647.88,-680 647.88,-702.5 815.12,-702.5 815.12,-680 647.88,-680"/>
<text xml:space="preserve" text-anchor="start" x="650.88" y="-686.2" font-family="Times New Roman,serif" font-size="14.00">left = [000002AFA71C75C0]</text>
<polygon fill="#012868" stroke="none" points="817.12,-680 817.12,-702.5 989.62,-702.5 989.62,-680 817.12,-680"/>
<polygon fill="none" stroke="black" points="817.12,-680 817.12,-702.5 989.62,-702.5 989.62,-680 817.12,-680"/>
<text xml:space="preserve" text-anchor="start" x="820.12" y="-686.2" font-family="Times New Roman,serif" font-size="14.00">right = [000002AFA71C8710]</text>
</g>
<!-- node000002AFA71C8830&#45;&gt;node000002AFA71C88F0 -->
<g id="edge6" class="edge">
<title>node000002AFA71C8830:right&#45;&gt;node000002AFA71C88F0:top</title>
<path fill="none" stroke="blue" stroke-width="3" d="M783.88,-859.75C791.55,-859.75 787.73,-848.45 782.88,-842.5 743.63,-794.37 687.12,-854.63 647.88,-806.5 647.19,-805.66 646.53,-804.72 645.92,-803.72"/>
<polygon fill="blue" stroke="blue" stroke-width="3" points="649.41,-803.99 646.58,-793.78 642.42,-803.53 649.41,-803.99"/>
</g>
<!-- node000002AFA71C73B0 -->
<g id="node3" class="node">
<title>node000002AFA71C73B0</title>
<polygon fill="#e9f5cc" stroke="none" points="25,-509.5 25,-634 368.5,-634 368.5,-509.5 25,-509.5"/>
<polygon fill="none" stroke="black" points="27,-609.5 27,-632 366.5,-632 366.5,-609.5 27,-609.5"/>
<text xml:space="preserve" text-anchor="start" x="133" y="-615.7" font-family="Times New Roman,serif" font-size="14.00">[000002AFA71C73B0]</text>
<polygon fill="none" stroke="black" points="27,-585 27,-607.5 192,-607.5 192,-585 27,-585"/>
<text xml:space="preserve" text-anchor="start" x="76.88" y="-591.2" font-family="Times New Roman,serif" font-size="14.00">is_valid = 1</text>
<polygon fill="none" stroke="black" points="194,-585 194,-607.5 366.5,-607.5 366.5,-585 194,-585"/>
<text xml:space="preserve" text-anchor="start" x="237.12" y="-591.2" font-family="Times New Roman,serif" font-size="14.00">verify_used = 0</text>
<polygon fill="none" stroke="black" points="27,-560.5 27,-583 366.5,-583 366.5,-560.5 27,-560.5"/>
<text xml:space="preserve" text-anchor="start" x="151.75" y="-566.7" font-family="Times New Roman,serif" font-size="14.00">type = operation</text>
<polygon fill="none" stroke="black" points="27,-536 27,-558.5 366.5,-558.5 366.5,-536 27,-536"/>
<text xml:space="preserve" text-anchor="start" x="176.5" y="-542.2" font-family="Times New Roman,serif" font-size="14.00">val = +</text>
<polygon fill="#31c02c" stroke="none" points="27,-511.5 27,-534 192,-534 192,-511.5 27,-511.5"/>
<polygon fill="none" stroke="black" points="27,-511.5 27,-534 192,-534 192,-511.5 27,-511.5"/>
<text xml:space="preserve" text-anchor="start" x="30" y="-517.7" font-family="Times New Roman,serif" font-size="14.00">left = [000002AFA71C7350]</text>
<polygon fill="#b709d2" stroke="none" points="194,-511.5 194,-534 366.5,-534 366.5,-511.5 194,-511.5"/>
<polygon fill="none" stroke="black" points="194,-511.5 194,-534 366.5,-534 366.5,-511.5 194,-511.5"/>
<text xml:space="preserve" text-anchor="start" x="197" y="-517.7" font-family="Times New Roman,serif" font-size="14.00">right = [000002AFA71C7500]</text>
</g>
<!-- node000002AFA71C7530&#45;&gt;node000002AFA71C73B0 -->
<g id="edge2" class="edge">
<title>node000002AFA71C7530:left&#45;&gt;node000002AFA71C73B0:top</title>
<path fill="none" stroke="red" stroke-width="3" d="M230.38,-691.25C222.7,-691.25 226.52,-679.95 231.38,-674 270.66,-625.84 327.22,-686.16 366.5,-638 367.18,-637.16 367.84,-636.22 368.46,-635.22"/>
<polygon fill="red" stroke="red" stroke-width="3" points="371.95,-635.03 367.8,-625.28 364.97,-635.49 371.95,-635.03"/>
</g>
<!-- node000002AFA71C77A0 -->
<g id="node6" class="node">
<title>node000002AFA71C77A0</title>
<polygon fill="#a821a8" stroke="none" points="403,-509.5 403,-634 572.5,-634 572.5,-509.5 403,-509.5"/>
<polygon fill="none" stroke="black" points="405,-609.5 405,-632 570.5,-632 570.5,-609.5 405,-609.5"/>
<text xml:space="preserve" text-anchor="start" x="423.62" y="-615.7" font-family="Times New Roman,serif" font-size="14.00">[000002AFA71C77A0]</text>
<polygon fill="none" stroke="black" points="405,-585 405,-607.5 476.25,-607.5 476.25,-585 405,-585"/>
<text xml:space="preserve" text-anchor="start" x="408" y="-591.2" font-family="Times New Roman,serif" font-size="14.00">is_valid = 1</text>
<polygon fill="none" stroke="black" points="478.25,-585 478.25,-607.5 570.5,-607.5 570.5,-585 478.25,-585"/>
<text xml:space="preserve" text-anchor="start" x="481.25" y="-591.2" font-family="Times New Roman,serif" font-size="14.00">verify_used = 0</text>
<polygon fill="none" stroke="black" points="405,-560.5 405,-583 570.5,-583 570.5,-560.5 405,-560.5"/>
<text xml:space="preserve" text-anchor="start" x="446.5" y="-566.7" font-family="Times New Roman,serif" font-size="14.00">type = variable</text>
<polygon fill="none" stroke="black" points="405,-536 405,-558.5 570.5,-558.5 570.5,-536 405,-536"/>
<text xml:space="preserve" text-anchor="start" x="468.25" y="-542.2" font-family="Times New Roman,serif" font-size="14.00">val = x</text>
<polygon fill="lightgreen" stroke="none" points="405,-511.5 405,-534 476.25,-534 476.25,-511.5 405,-511.5"/>
<polygon fill="none" stroke="black" points="405,-511.5 405,-534 476.25,-534 476.25,-511.5 405,-511.5"/>
<text xml:space="preserve" text-anchor="start" x="416.62" y="-517.7" font-family="Times New Roman,serif" font-size="14.00">left = nil</text>
<polygon fill="lightgreen" stroke="none" points="478.25,-511.5 478.25,-534 570.5,-534 570.5,-511.5 478.25,-511.5"/>
<polygon fill="none" stroke="black" points="478.25,-511.5 478.25,-534 570.5,-534 570.5,-511.5 478.25,-511.5"/>
<text xml:space="preserve" text-anchor="start" x="496.62" y="-517.7" font-family="Times New Roman,serif" font-size="14.00">right = nil</text>
</g>
<!-- node000002AFA71C7530&#45;&gt;node000002AFA71C77A0 -->
<g id="edge5" class="edge">
<title>node000002AFA71C7530:right&#45;&gt;node000002AFA71C77A0:top</title>
<path fill="none" stroke="blue" stroke-width="3" d="M488.38,-679C488.38,-637.71 427.83,-672.41 405,-638 404.4,-637.1 403.8,-636.11 403.23,-635.08"/>
<polygon fill="blue" stroke="blue" stroke-width="3" points="406.72,-635.46 403.76,-625.28 399.73,-635.08 406.72,-635.46"/>
</g>
<!-- node000002AFA71C7350 -->
<g id="node4" class="node">
<title>node000002AFA71C7350</title>
<polygon fill="#31c02c" stroke="none" points="8,-341 8,-465.5 177.5,-465.5 177.5,-341 8,-341"/>
<polygon fill="none" stroke="black" points="10,-441 10,-463.5 175.5,-463.5 175.5,-441 10,-441"/>
<text xml:space="preserve" text-anchor="start" x="30.12" y="-447.2" font-family="Times New Roman,serif" font-size="14.00">[000002AFA71C7350]</text>
<polygon fill="none" stroke="black" points="10,-416.5 10,-439 81.25,-439 81.25,-416.5 10,-416.5"/>
<text xml:space="preserve" text-anchor="start" x="13" y="-422.7" font-family="Times New Roman,serif" font-size="14.00">is_valid = 1</text>
<polygon fill="none" stroke="black" points="83.25,-416.5 83.25,-439 175.5,-439 175.5,-416.5 83.25,-416.5"/>
<text xml:space="preserve" text-anchor="start" x="86.25" y="-422.7" font-family="Times New Roman,serif" font-size="14.00">verify_used = 0</text>
<polygon fill="none" stroke="black" points="10,-392 10,-414.5 175.5,-414.5 175.5,-392 10,-392"/>
<text xml:space="preserve" text-anchor="start" x="51.5" y="-398.2" font-family="Times New Roman,serif" font-size="14.00">type = variable</text>
<polygon fill="none" stroke="black" points="10,-367.5 10,-390 175.5,-390 175.5,-367.5 10,-367.5"/>
<text xml:space="preserve" text-anchor="start" x="73.25" y="-373.7" font-family="Times New Roman,serif" font-size="14.00">val = x</text>
<polygon fill="lightgreen" stroke="none" points="10,-343 10,-365.5 81.25,-365.5 81.25,-343 10,-343"/>
<polygon fill="none" stroke="black" points="10,-343 10,-365.5 81.25,-365.5 81.25,-343 10,-343"/>
<text xml:space="preserve" text-anchor="start" x="21.62" y="-349.2" font-family="Times New Roman,serif" font-size="14.00">left = nil</text>
<polygon fill="lightgreen" stroke="none" points="83.25,-343 83.25,-365.5 175.5,-365.5 175.5,-343 83.25,-343"/>
<polygon fill="none" stroke="black" points="83.25,-343 83.25,-365.5 175.5,-365.5 175.5,-343 83.25,-343"/>
<text xml:space="preserve" text-anchor="start" x="101.62" y="-349.2" font-family="Times New Roman,serif" font-size="14.00">right = nil</text>
</g>
<!-- node000002AFA71C73B0&#45;&gt;node000002AFA71C7350 -->
<g id="edge3" class="edge">
<title>node000002AFA71C73B0:left&#45;&gt;node000002AFA71C7350:top</title>
<path fill="none" stroke="red" stroke-width="3" d="M109.5,-510.5C109.5,-475.97 157.85,-499.18 175.5,-469.5 176.05,-468.57 176.62,-467.56 177.17,-466.52"/>
<polygon fill="red" stroke="red" stroke-width="3" points="180.68,-466.61 176.71,-456.79 173.68,-466.94 180.68,-466.61"/>
</g>
<!-- node000002AFA71C7500 -->
<g id="node5" class="node">
<title>node000002AFA71C7500</title>
<polygon fill="#b709d2" stroke="none" points="212,-341 212,-465.5 381.5,-465.5 381.5,-341 212,-341"/>
<polygon fill="none" stroke="black" points="214,-441 214,-463.5 379.5,-463.5 379.5,-441 214,-441"/>
<text xml:space="preserve" text-anchor="start" x="234.12" y="-447.2" font-family="Times New Roman,serif" font-size="14.00">[000002AFA71C7500]</text>
<polygon fill="none" stroke="black" points="214,-416.5 214,-439 285.25,-439 285.25,-416.5 214,-416.5"/>
<text xml:space="preserve" text-anchor="start" x="217" y="-422.7" font-family="Times New Roman,serif" font-size="14.00">is_valid = 1</text>
<polygon fill="none" stroke="black" points="287.25,-416.5 287.25,-439 379.5,-439 379.5,-416.5 287.25,-416.5"/>
<text xml:space="preserve" text-anchor="start" x="290.25" y="-422.7" font-family="Times New Roman,serif" font-size="14.00">verify_used = 0</text>
<polygon fill="none" stroke="black" points="214,-392 214,-414.5 379.5,-414.5 379.5,-392 214,-392"/>
<text xml:space="preserve" text-anchor="start" x="261.5" y="-398.2" font-family="Times New Roman,serif" font-size="14.00">type = literal</text>
<polygon fill="none" stroke="black" points="214,-367.5 214,-390 379.5,-390 379.5,-367.5 214,-367.5"/>
<text xml:space="preserve" text-anchor="start" x="277.25" y="-373.7" font-family="Times New Roman,serif" font-size="14.00">val = 1</text>
<polygon fill="lightgreen" stroke="none" points="214,-343 214,-365.5 285.25,-365.5 285.25,-343 214,-343"/>
<polygon fill="none" stroke="black" points="214,-343 214,-365.5 285.25,-365.5 285.25,-343 214,-343"/>
<text xml:space="preserve" text-anchor="start" x="225.62" y="-349.2" font-family="Times New Roman,serif" font-size="14.00">left = nil</text>
<polygon fill="lightgreen" stroke="none" points="287.25,-343 287.25,-365.5 379.5,-365.5 379.5,-343 287.25,-343"/>
<polygon fill="none" stroke="black" points="287.25,-343 287.25,-365.5 379.5,-365.5 379.5,-343 287.25,-343"/>
<text xml:space="preserve" text-anchor="start" x="305.62" y="-349.2" font-family="Times New Roman,serif" font-size="14.00">right = nil</text>
</g>
<!-- node000002AFA71C73B0&#45;&gt;node000002AFA71C7500 -->
<g id="edge4" class="edge">
<title>node000002AFA71C73B0:right&#45;&gt;node000002AFA71C7500:top</title>
<path fill="none" stroke="blue" stroke-width="3" d="M280.25,-510.5C280.25,-475.87 231.72,-499.25 214,-469.5 213.45,-468.57 212.88,-467.56 212.33,-466.52"/>
<polygon fill="blue" stroke="blue" stroke-width="3" points="215.81,-466.94 212.79,-456.79 208.82,-466.61 215.81,-466.94"/>
</g>
<!-- node000002AFA71C75C0 -->
<g id="node8" class="node">
<title>node000002AFA71C75C0</title>
<polygon fill="#b97092" stroke="none" points="606.88,-509.5 606.88,-634 856.62,-634 856.62,-509.5 606.88,-509.5"/>
<polygon fill="none" stroke="black" points="608.88,-609.5 608.88,-632 854.62,-632 854.62,-609.5 608.88,-609.5"/>
<text xml:space="preserve" text-anchor="start" x="668" y="-615.7" font-family="Times New Roman,serif" font-size="14.00">[000002AFA71C75C0]</text>
<polygon fill="none" stroke="black" points="608.88,-585 608.88,-607.5 680.12,-607.5 680.12,-585 608.88,-585"/>
<text xml:space="preserve" text-anchor="start" x="611.88" y="-591.2" font-family="Times New Roman,serif" font-size="14.00">is_valid = 1</text>
<polygon fill="none" stroke="black" points="682.12,-585 682.12,-607.5 854.62,-607.5 854.62,-585 682.12,-585"/>
<text xml:space="preserve" text-anchor="start" x="725.25" y="-591.2" font-family="Times New Roman,serif" font-size="14.00">verify_used = 0</text>
<polygon fill="none" stroke="black" points="608.88,-560.5 608.88,-583 854.62,-583 854.62,-560.5 608.88,-560.5"/>
<text xml:space="preserve" text-anchor="start" x="686.75" y="-566.7" font-family="Times New Roman,serif" font-size="14.00">type = operation</text>
<polygon fill="none" stroke="black" points="608.88,-536 608.88,-558.5 854.62,-558.5 854.62,-536 608.88,-536"/>
<text xml:space="preserve" text-anchor="start" x="710.38" y="-542.2" font-family="Times New Roman,serif" font-size="14.00">val = ln</text>
<polygon fill="lightgreen" stroke="none" points="608.88,-511.5 608.88,-534 680.12,-534 680.12,-511.5 608.88,-511.5"/>
<polygon fill="none" stroke="black" points="608.88,-511.5 608.88,-534 680.12,-534 680.12,-511.5 608.88,-511.5"/>
<text xml:space="preserve" text-anchor="start" x="620.5" y="-517.7" font-family="Times New Roman,serif" font-size="14.00">left = nil</text>
<polygon fill="#9306e2" stroke="none" points="682.12,-511.5 682.12,-534 854.62,-534 854.62,-511.5 682.12,-511.5"/>
<polygon fill="none" stroke="black" points="682.12,-511.5 682.12,-534 854.62,-534 854.62,-511.5 682.12,-511.5"/>
<text xml:space="preserve" text-anchor="start" x="685.12" y="-517.7" font-family="Times New Roman,serif" font-size="14.00">right = [000002AFA71C7590]</text>
</g>
<!-- node000002AFA71C88F0&#45;&gt;node000002AFA71C75C0 -->
<g id="edge7" class="edge">
<title>node000002AFA71C88F0:left&#45;&gt;node000002AFA71C75C0:top</title>
<path fill="none" stroke="red" stroke-width="3" d="M731.5,-679C731.5,-621.32 819.55,-683.79 854.62,-638 855.28,-637.14 855.93,-636.19 856.53,-635.17"/>
<polygon fill="red" stroke="red" stroke-width="3" points="860.02,-635.04 855.91,-625.28 853.04,-635.48 860.02,-635.04"/>
</g>
<!-- node000002AFA71C8710 -->
<g id="node12" class="node">
<title>node000002AFA71C8710</title>
<polygon fill="#012868" stroke="none" points="932.88,-509.5 932.88,-634 1278.62,-634 1278.62,-509.5 932.88,-509.5"/>
<polygon fill="none" stroke="black" points="934.88,-609.5 934.88,-632 1276.62,-632 1276.62,-609.5 934.88,-609.5"/>
<text xml:space="preserve" text-anchor="start" x="1043.12" y="-615.7" font-family="Times New Roman,serif" font-size="14.00">[000002AFA71C8710]</text>
<polygon fill="none" stroke="black" points="934.88,-585 934.88,-607.5 1099.88,-607.5 1099.88,-585 934.88,-585"/>
<text xml:space="preserve" text-anchor="start" x="984.75" y="-591.2" font-family="Times New Roman,serif" font-size="14.00">is_valid = 1</text>
<polygon fill="none" stroke="black" points="1101.88,-585 1101.88,-607.5 1276.62,-607.5 1276.62,-585 1101.88,-585"/>
<text xml:space="preserve" text-anchor="start" x="1146.12" y="-591.2" font-family="Times New Roman,serif" font-size="14.00">verify_used = 0</text>
<polygon fill="none" stroke="black" points="934.88,-560.5 934.88,-583 1276.62,-583 1276.62,-560.5 934.88,-560.5"/>
<text xml:space="preserve" text-anchor="start" x="1060.75" y="-566.7" font-family="Times New Roman,serif" font-size="14.00">type = operation</text>
<polygon fill="none" stroke="black" points="934.88,-536 934.88,-558.5 1276.62,-558.5 1276.62,-536 934.88,-536"/>
<text xml:space="preserve" text-anchor="start" x="1086.25" y="-542.2" font-family="Times New Roman,serif" font-size="14.00">val = *</text>
<polygon fill="#e4baec" stroke="none" points="934.88,-511.5 934.88,-534 1099.88,-534 1099.88,-511.5 934.88,-511.5"/>
<polygon fill="none" stroke="black" points="934.88,-511.5 934.88,-534 1099.88,-534 1099.88,-511.5 934.88,-511.5"/>
<text xml:space="preserve" text-anchor="start" x="937.88" y="-517.7" font-family="Times New Roman,serif" font-size="14.00">left = [000002AFA71C7620]</text>
<polygon fill="#3b2cb4" stroke="none" points="1101.88,-511.5 1101.88,-534 1276.62,-534 1276.62,-511.5 1101.88,-511.5"/>
<polygon fill="none" stroke="black" points="1101.88,-511.5 1101.88,-534 1276.62,-534 1276.62,-511.5 1101.88,-511.5"/>
<text xml:space="preserve" text-anchor="start" x="1104.88" y="-517.7" font-family="Times New Roman,serif" font-size="14.00">right = [000002AFA71C8B00]</text>
</g>
<!-- node000002AFA71C88F0&#45;&gt;node000002AFA71C8710 -->
<g id="edge11" class="edge">
<title>node000002AFA71C88F0:right&#45;&gt;node000002AFA71C8710:top</title>
<path fill="none" stroke="blue" stroke-width="3" d="M990.62,-691.25C998.3,-691.25 993.46,-680.65 989.62,-674 975.07,-648.78 949.43,-663.22 934.88,-638 934.34,-637.06 933.78,-636.05 933.23,-635"/>
<polygon fill="blue" stroke="blue" stroke-width="3" points="936.72,-635.43 933.67,-625.29 929.72,-635.12 936.72,-635.43"/>
</g>
<!-- node000002AFA71C7590 -->
<g id="node9" class="node">
<title>node000002AFA71C7590</title>
<polygon fill="#9306e2" stroke="none" points="552.5,-341 552.5,-465.5 899,-465.5 899,-341 552.5,-341"/>
<polygon fill="none" stroke="black" points="554.5,-441 554.5,-463.5 897,-463.5 897,-441 554.5,-441"/>
<text xml:space="preserve" text-anchor="start" x="663.12" y="-447.2" font-family="Times New Roman,serif" font-size="14.00">[000002AFA71C7590]</text>
<polygon fill="none" stroke="black" points="554.5,-416.5 554.5,-439 719.5,-439 719.5,-416.5 554.5,-416.5"/>
<text xml:space="preserve" text-anchor="start" x="604.38" y="-422.7" font-family="Times New Roman,serif" font-size="14.00">is_valid = 1</text>
<polygon fill="none" stroke="black" points="721.5,-416.5 721.5,-439 897,-439 897,-416.5 721.5,-416.5"/>
<text xml:space="preserve" text-anchor="start" x="766.12" y="-422.7" font-family="Times New Roman,serif" font-size="14.00">verify_used = 0</text>
<polygon fill="none" stroke="black" points="554.5,-392 554.5,-414.5 897,-414.5 897,-392 554.5,-392"/>
<text xml:space="preserve" text-anchor="start" x="680.75" y="-398.2" font-family="Times New Roman,serif" font-size="14.00">type = operation</text>
<polygon fill="none" stroke="black" points="554.5,-367.5 554.5,-390 897,-390 897,-367.5 554.5,-367.5"/>
<text xml:space="preserve" text-anchor="start" x="705.5" y="-373.7" font-family="Times New Roman,serif" font-size="14.00">val = +</text>
<polygon fill="#1ccf35" stroke="none" points="554.5,-343 554.5,-365.5 719.5,-365.5 719.5,-343 554.5,-343"/>
<polygon fill="none" stroke="black" points="554.5,-343 554.5,-365.5 719.5,-365.5 719.5,-343 554.5,-343"/>
<text xml:space="preserve" text-anchor="start" x="557.5" y="-349.2" font-family="Times New Roman,serif" font-size="14.00">left = [000002AFA71C7470]</text>
<polygon fill="#34b225" stroke="none" points="721.5,-343 721.5,-365.5 897,-365.5 897,-343 721.5,-343"/>
<polygon fill="none" stroke="black" points="721.5,-343 721.5,-365.5 897,-365.5 897,-343 721.5,-343"/>
<text xml:space="preserve" text-anchor="start" x="724.5" y="-349.2" font-family="Times New Roman,serif" font-size="14.00">right = [000002AFA71C74A0]</text>
</g>
<!-- node000002AFA71C75C0&#45;&gt;node000002AFA71C7590 -->
<g id="edge8" class="edge">
<title>node000002AFA71C75C0:right&#45;&gt;node000002AFA71C7590:top</title>
<path fill="none" stroke="blue" stroke-width="3" d="M768.38,-510.5C768.38,-488.51 741.84,-489.94 730.64,-477.82"/>
<polygon fill="blue" stroke="blue" stroke-width="3" points="734.05,-476.94 727.31,-468.76 727.47,-479.36 734.05,-476.94"/>
</g>
<!-- node000002AFA71C7470 -->
<g id="node10" class="node">
<title>node000002AFA71C7470</title>
<polygon fill="#1ccf35" stroke="none" points="536,-172.5 536,-297 705.5,-297 705.5,-172.5 536,-172.5"/>
<polygon fill="none" stroke="black" points="538,-272.5 538,-295 703.5,-295 703.5,-272.5 538,-272.5"/>
<text xml:space="preserve" text-anchor="start" x="558.12" y="-278.7" font-family="Times New Roman,serif" font-size="14.00">[000002AFA71C7470]</text>
<polygon fill="none" stroke="black" points="538,-248 538,-270.5 609.25,-270.5 609.25,-248 538,-248"/>
<text xml:space="preserve" text-anchor="start" x="541" y="-254.2" font-family="Times New Roman,serif" font-size="14.00">is_valid = 1</text>
<polygon fill="none" stroke="black" points="611.25,-248 611.25,-270.5 703.5,-270.5 703.5,-248 611.25,-248"/>
<text xml:space="preserve" text-anchor="start" x="614.25" y="-254.2" font-family="Times New Roman,serif" font-size="14.00">verify_used = 0</text>
<polygon fill="none" stroke="black" points="538,-223.5 538,-246 703.5,-246 703.5,-223.5 538,-223.5"/>
<text xml:space="preserve" text-anchor="start" x="579.5" y="-229.7" font-family="Times New Roman,serif" font-size="14.00">type = variable</text>
<polygon fill="none" stroke="black" points="538,-199 538,-221.5 703.5,-221.5 703.5,-199 538,-199"/>
<text xml:space="preserve" text-anchor="start" x="601.25" y="-205.2" font-family="Times New Roman,serif" font-size="14.00">val = x</text>
<polygon fill="lightgreen" stroke="none" points="538,-174.5 538,-197 609.25,-197 609.25,-174.5 538,-174.5"/>
<polygon fill="none" stroke="black" points="538,-174.5 538,-197 609.25,-197 609.25,-174.5 538,-174.5"/>
<text xml:space="preserve" text-anchor="start" x="549.62" y="-180.7" font-family="Times New Roman,serif" font-size="14.00">left = nil</text>
<polygon fill="lightgreen" stroke="none" points="611.25,-174.5 611.25,-197 703.5,-197 703.5,-174.5 611.25,-174.5"/>
<polygon fill="none" stroke="black" points="611.25,-174.5 611.25,-197 703.5,-197 703.5,-174.5 611.25,-174.5"/>
<text xml:space="preserve" text-anchor="start" x="629.62" y="-180.7" font-family="Times New Roman,serif" font-size="14.00">right = nil</text>
</g>
<!-- node000002AFA71C7590&#45;&gt;node000002AFA71C7470 -->
<g id="edge9" class="edge">
<title>node000002AFA71C7590:left&#45;&gt;node000002AFA71C7470:top</title>
<path fill="none" stroke="red" stroke-width="3" d="M637,-342C637,-307.28 685.7,-330.81 703.5,-301 704.05,-300.07 704.62,-299.07 705.17,-298.02"/>
<polygon fill="red" stroke="red" stroke-width="3" points="708.68,-298.11 704.71,-288.29 701.69,-298.44 708.68,-298.11"/>
</g>
<!-- node000002AFA71C74A0 -->
<g id="node11" class="node">
<title>node000002AFA71C74A0</title>
<polygon fill="#34b225" stroke="none" points="740,-172.5 740,-297 909.5,-297 909.5,-172.5 740,-172.5"/>
<polygon fill="none" stroke="black" points="742,-272.5 742,-295 907.5,-295 907.5,-272.5 742,-272.5"/>
<text xml:space="preserve" text-anchor="start" x="760.62" y="-278.7" font-family="Times New Roman,serif" font-size="14.00">[000002AFA71C74A0]</text>
<polygon fill="none" stroke="black" points="742,-248 742,-270.5 813.25,-270.5 813.25,-248 742,-248"/>
<text xml:space="preserve" text-anchor="start" x="745" y="-254.2" font-family="Times New Roman,serif" font-size="14.00">is_valid = 1</text>
<polygon fill="none" stroke="black" points="815.25,-248 815.25,-270.5 907.5,-270.5 907.5,-248 815.25,-248"/>
<text xml:space="preserve" text-anchor="start" x="818.25" y="-254.2" font-family="Times New Roman,serif" font-size="14.00">verify_used = 0</text>
<polygon fill="none" stroke="black" points="742,-223.5 742,-246 907.5,-246 907.5,-223.5 742,-223.5"/>
<text xml:space="preserve" text-anchor="start" x="789.5" y="-229.7" font-family="Times New Roman,serif" font-size="14.00">type = literal</text>
<polygon fill="none" stroke="black" points="742,-199 742,-221.5 907.5,-221.5 907.5,-199 742,-199"/>
<text xml:space="preserve" text-anchor="start" x="805.25" y="-205.2" font-family="Times New Roman,serif" font-size="14.00">val = 1</text>
<polygon fill="lightgreen" stroke="none" points="742,-174.5 742,-197 813.25,-197 813.25,-174.5 742,-174.5"/>
<polygon fill="none" stroke="black" points="742,-174.5 742,-197 813.25,-197 813.25,-174.5 742,-174.5"/>
<text xml:space="preserve" text-anchor="start" x="753.62" y="-180.7" font-family="Times New Roman,serif" font-size="14.00">left = nil</text>
<polygon fill="lightgreen" stroke="none" points="815.25,-174.5 815.25,-197 907.5,-197 907.5,-174.5 815.25,-174.5"/>
<polygon fill="none" stroke="black" points="815.25,-174.5 815.25,-197 907.5,-197 907.5,-174.5 815.25,-174.5"/>
<text xml:space="preserve" text-anchor="start" x="833.62" y="-180.7" font-family="Times New Roman,serif" font-size="14.00">right = nil</text>
</g>
<!-- node000002AFA71C7590&#45;&gt;node000002AFA71C74A0 -->
<g id="edge10" class="edge">
<title>node000002AFA71C7590:right&#45;&gt;node000002AFA71C74A0:top</title>
<path fill="none" stroke="blue" stroke-width="3" d="M809.25,-342C809.25,-306.99 760.02,-331.01 742,-301 741.44,-300.07 740.87,-299.07 740.32,-298.02"/>
<polygon fill="blue" stroke="blue" stroke-width="3" points="743.81,-298.44 740.78,-288.29 736.82,-298.11 743.81,-298.44"/>
</g>
<!-- node000002AFA71C7620 -->
<g id="node13" class="node">
<title>node000002AFA71C7620</title>
<polygon fill="#e4baec" stroke="none" points="933,-341 933,-465.5 1102.5,-465.5 1102.5,-341 933,-341"/>
<polygon fill="none" stroke="black" points="935,-441 935,-463.5 1100.5,-463.5 1100.5,-441 935,-441"/>
<text xml:space="preserve" text-anchor="start" x="955.12" y="-447.2" font-family="Times New Roman,serif" font-size="14.00">[000002AFA71C7620]</text>
<polygon fill="none" stroke="black" points="935,-416.5 935,-439 1006.25,-439 1006.25,-416.5 935,-416.5"/>
<text xml:space="preserve" text-anchor="start" x="938" y="-422.7" font-family="Times New Roman,serif" font-size="14.00">is_valid = 1</text>
<polygon fill="none" stroke="black" points="1008.25,-416.5 1008.25,-439 1100.5,-439 1100.5,-416.5 1008.25,-416.5"/>
<text xml:space="preserve" text-anchor="start" x="1011.25" y="-422.7" font-family="Times New Roman,serif" font-size="14.00">verify_used = 0</text>
<polygon fill="none" stroke="black" points="935,-392 935,-414.5 1100.5,-414.5 1100.5,-392 935,-392"/>
<text xml:space="preserve" text-anchor="start" x="976.5" y="-398.2" font-family="Times New Roman,serif" font-size="14.00">type = variable</text>
<polygon fill="none" stroke="black" points="935,-367.5 935,-390 1100.5,-390 1100.5,-367.5 935,-367.5"/>
<text xml:space="preserve" text-anchor="start" x="998.25" y="-373.7" font-family="Times New Roman,serif" font-size="14.00">val = x</text>
<polygon fill="lightgreen" stroke="none" points="935,-343 935,-365.5 1006.25,-365.5 1006.25,-343 935,-343"/>
<polygon fill="none" stroke="black" points="935,-343 935,-365.5 1006.25,-365.5 1006.25,-343 935,-343"/>
<text xml:space="preserve" text-anchor="start" x="946.62" y="-349.2" font-family="Times New Roman,serif" font-size="14.00">left = nil</text>
<polygon fill="lightgreen" stroke="none" points="1008.25,-343 1008.25,-365.5 1100.5,-365.5 1100.5,-343 1008.25,-343"/>
<polygon fill="none" stroke="black" points="1008.25,-343 1008.25,-365.5 1100.5,-365.5 1100.5,-343 1008.25,-343"/>
<text xml:space="preserve" text-anchor="start" x="1026.62" y="-349.2" font-family="Times New Roman,serif" font-size="14.00">right = nil</text>
</g>
<!-- node000002AFA71C8710&#45;&gt;node000002AFA71C7620 -->
<g id="edge12" class="edge">
<title>node000002AFA71C8710:left&#45;&gt;node000002AFA71C7620:top</title>
<path fill="none" stroke="red" stroke-width="3" d="M1017.38,-510.5C1017.38,-469.31 1077.74,-503.84 1100.5,-469.5 1101.1,-468.6 1101.7,-467.61 1102.27,-466.58"/>
<polygon fill="red" stroke="red" stroke-width="3" points="1105.77,-466.58 1101.74,-456.78 1098.78,-466.96 1105.77,-466.58"/>
</g>
<!-- node000002AFA71C8B00 -->
<g id="node14" class="node">
<title>node000002AFA71C8B00</title>
<polygon fill="#3b2cb4" stroke="none" points="1136.38,-341 1136.38,-465.5 1485.12,-465.5 1485.12,-341 1136.38,-341"/>
<polygon fill="none" stroke="black" points="1138.38,-441 1138.38,-463.5 1483.12,-463.5 1483.12,-441 1138.38,-441"/>
<text xml:space="preserve" text-anchor="start" x="1247" y="-447.2" font-family="Times New Roman,serif" font-size="14.00">[000002AFA71C8B00]</text>
<polygon fill="none" stroke="black" points="1138.38,-416.5 1138.38,-439 1306.38,-439 1306.38,-416.5 1138.38,-416.5"/>
<text xml:space="preserve" text-anchor="start" x="1189.75" y="-422.7" font-family="Times New Roman,serif" font-size="14.00">is_valid = 1</text>
<polygon fill="none" stroke="black" points="1308.38,-416.5 1308.38,-439 1483.12,-439 1483.12,-416.5 1308.38,-416.5"/>
<text xml:space="preserve" text-anchor="start" x="1352.62" y="-422.7" font-family="Times New Roman,serif" font-size="14.00">verify_used = 0</text>
<polygon fill="none" stroke="black" points="1138.38,-392 1138.38,-414.5 1483.12,-414.5 1483.12,-392 1138.38,-392"/>
<text xml:space="preserve" text-anchor="start" x="1265.75" y="-398.2" font-family="Times New Roman,serif" font-size="14.00">type = operation</text>
<polygon fill="none" stroke="black" points="1138.38,-367.5 1138.38,-390 1483.12,-390 1483.12,-367.5 1138.38,-367.5"/>
<text xml:space="preserve" text-anchor="start" x="1292.75" y="-373.7" font-family="Times New Roman,serif" font-size="14.00">val = /</text>
<polygon fill="#506218" stroke="none" points="1138.38,-343 1138.38,-365.5 1306.38,-365.5 1306.38,-343 1138.38,-343"/>
<polygon fill="none" stroke="black" points="1138.38,-343 1138.38,-365.5 1306.38,-365.5 1306.38,-343 1138.38,-343"/>
<text xml:space="preserve" text-anchor="start" x="1141.38" y="-349.2" font-family="Times New Roman,serif" font-size="14.00">left = [000002AFA71C87A0]</text>
<polygon fill="#82d3eb" stroke="none" points="1308.38,-343 1308.38,-365.5 1483.12,-365.5 1483.12,-343 1308.38,-343"/>
<polygon fill="none" stroke="black" points="1308.38,-343 1308.38,-365.5 1483.12,-365.5 1483.12,-343 1308.38,-343"/>
<text xml:space="preserve" text-anchor="start" x="1311.38" y="-349.2" font-family="Times New Roman,serif" font-size="14.00">right = [000002AFA71C8B60]</text>
</g>
<!-- node000002AFA71C8710&#45;&gt;node000002AFA71C8B00 -->
<g id="edge13" class="edge">
<title>node000002AFA71C8710:right&#45;&gt;node000002AFA71C8B00:top</title>
<path fill="none" stroke="blue" stroke-width="3" d="M1277.62,-522.75C1285.3,-522.75 1281.5,-511.44 1276.62,-505.5 1236.36,-456.41 1178.64,-518.59 1138.38,-469.5 1137.69,-468.67 1137.03,-467.72 1136.41,-466.72"/>
<polygon fill="blue" stroke="blue" stroke-width="3" points="1139.9,-466.99 1137.07,-456.78 1132.92,-466.53 1139.9,-466.99"/>
</g>
<!-- node000002AFA71C87A0 -->
<g id="node15" class="node">
<title>node000002AFA71C87A0</title>
<polygon fill="#506218" stroke="none" points="1078,-172.5 1078,-297 1247.5,-297 1247.5,-172.5 1078,-172.5"/>
<polygon fill="none" stroke="black" points="1080,-272.5 1080,-295 1245.5,-295 1245.5,-272.5 1080,-272.5"/>
<text xml:space="preserve" text-anchor="start" x="1098.62" y="-278.7" font-family="Times New Roman,serif" font-size="14.00">[000002AFA71C87A0]</text>
<polygon fill="none" stroke="black" points="1080,-248 1080,-270.5 1151.25,-270.5 1151.25,-248 1080,-248"/>
<text xml:space="preserve" text-anchor="start" x="1083" y="-254.2" font-family="Times New Roman,serif" font-size="14.00">is_valid = 1</text>
<polygon fill="none" stroke="black" points="1153.25,-248 1153.25,-270.5 1245.5,-270.5 1245.5,-248 1153.25,-248"/>
<text xml:space="preserve" text-anchor="start" x="1156.25" y="-254.2" font-family="Times New Roman,serif" font-size="14.00">verify_used = 0</text>
<polygon fill="none" stroke="black" points="1080,-223.5 1080,-246 1245.5,-246 1245.5,-223.5 1080,-223.5"/>
<text xml:space="preserve" text-anchor="start" x="1127.5" y="-229.7" font-family="Times New Roman,serif" font-size="14.00">type = literal</text>
<polygon fill="none" stroke="black" points="1080,-199 1080,-221.5 1245.5,-221.5 1245.5,-199 1080,-199"/>
<text xml:space="preserve" text-anchor="start" x="1143.25" y="-205.2" font-family="Times New Roman,serif" font-size="14.00">val = 1</text>
<polygon fill="lightgreen" stroke="none" points="1080,-174.5 1080,-197 1151.25,-197 1151.25,-174.5 1080,-174.5"/>
<polygon fill="none" stroke="black" points="1080,-174.5 1080,-197 1151.25,-197 1151.25,-174.5 1080,-174.5"/>
<text xml:space="preserve" text-anchor="start" x="1091.62" y="-180.7" font-family="Times New Roman,serif" font-size="14.00">left = nil</text>
<polygon fill="lightgreen" stroke="none" points="1153.25,-174.5 1153.25,-197 1245.5,-197 1245.5,-174.5 1153.25,-174.5"/>
<polygon fill="none" stroke="black" points="1153.25,-174.5 1153.25,-197 1245.5,-197 1245.5,-174.5 1153.25,-174.5"/>
<text xml:space="preserve" text-anchor="start" x="1171.62" y="-180.7" font-family="Times New Roman,serif" font-size="14.00">right = nil</text>
</g>
<!-- node000002AFA71C8B00&#45;&gt;node000002AFA71C87A0 -->
<g id="edge14" class="edge">
<title>node000002AFA71C8B00:left&#45;&gt;node000002AFA71C87A0:top</title>
<path fill="none" stroke="red" stroke-width="3" d="M1137.38,-354.25C1129.7,-354.25 1133.71,-343.1 1138.38,-337 1168.86,-297.08 1215.01,-340.92 1245.5,-301 1246.16,-300.14 1246.8,-299.18 1247.4,-298.17"/>
<polygon fill="red" stroke="red" stroke-width="3" points="1250.9,-298.05 1246.78,-288.28 1243.91,-298.48 1250.9,-298.05"/>
</g>
<!-- node000002AFA71C8B60 -->
<g id="node16" class="node">
<title>node000002AFA71C8B60</title>
<polygon fill="#82d3eb" stroke="none" points="1281.5,-172.5 1281.5,-297 1628,-297 1628,-172.5 1281.5,-172.5"/>
<polygon fill="none" stroke="black" points="1283.5,-272.5 1283.5,-295 1626,-295 1626,-272.5 1283.5,-272.5"/>
<text xml:space="preserve" text-anchor="start" x="1391" y="-278.7" font-family="Times New Roman,serif" font-size="14.00">[000002AFA71C8B60]</text>
<polygon fill="none" stroke="black" points="1283.5,-248 1283.5,-270.5 1451.5,-270.5 1451.5,-248 1283.5,-248"/>
<text xml:space="preserve" text-anchor="start" x="1334.88" y="-254.2" font-family="Times New Roman,serif" font-size="14.00">is_valid = 1</text>
<polygon fill="none" stroke="black" points="1453.5,-248 1453.5,-270.5 1626,-270.5 1626,-248 1453.5,-248"/>
<text xml:space="preserve" text-anchor="start" x="1496.62" y="-254.2" font-family="Times New Roman,serif" font-size="14.00">verify_used = 0</text>
<polygon fill="none" stroke="black" points="1283.5,-223.5 1283.5,-246 1626,-246 1626,-223.5 1283.5,-223.5"/>
<text xml:space="preserve" text-anchor="start" x="1409.75" y="-229.7" font-family="Times New Roman,serif" font-size="14.00">type = operation</text>
<polygon fill="none" stroke="black" points="1283.5,-199 1283.5,-221.5 1626,-221.5 1626,-199 1283.5,-199"/>
<text xml:space="preserve" text-anchor="start" x="1434.5" y="-205.2" font-family="Times New Roman,serif" font-size="14.00">val = +</text>
<polygon fill="#ef392f" stroke="none" points="1283.5,-174.5 1283.5,-197 1451.5,-197 1451.5,-174.5 1283.5,-174.5"/>
<polygon fill="none" stroke="black" points="1283.5,-174.5 1283.5,-197 1451.5,-197 1451.5,-174.5 1283.5,-174.5"/>
<text xml:space="preserve" text-anchor="start" x="1286.5" y="-180.7" font-family="Times New Roman,serif" font-size="14.00">left = [000002AFA71C8A70]</text>
<polygon fill="#caab91" stroke="none" points="1453.5,-174.5 1453.5,-197 1626,-197 1626,-174.5 1453.5,-174.5"/>
<polygon fill="none" stroke="black" points="1453.5,-174.5 1453.5,-197 1626,-197 1626,-174.5 1453.5,-174.5"/>
<text xml:space="preserve" text-anchor="start" x="1456.5" y="-180.7" font-family="Times New Roman,serif" font-size="14.00">right = [000002AFA71C8860]</text>
</g>
<!-- node000002AFA71C8B00&#45;&gt;node000002AFA71C8B60 -->
<g id="edge15" class="edge">
<title>node000002AFA71C8B00:right&#45;&gt;node000002AFA71C8B60:top</title>
<path fill="none" stroke="blue" stroke-width="3" d="M1484.12,-354.25C1491.8,-354.25 1488.22,-342.75 1483.12,-337 1423.33,-269.53 1343.29,-368.47 1283.5,-301 1282.7,-300.1 1281.95,-299.06 1281.26,-297.95"/>
<polygon fill="blue" stroke="blue" stroke-width="3" points="1284.72,-298.54 1282.11,-288.27 1277.75,-297.93 1284.72,-298.54"/>
</g>
<!-- node000002AFA71C8A70 -->
<g id="node17" class="node">
<title>node000002AFA71C8A70</title>
<polygon fill="#ef392f" stroke="none" points="1267,-4 1267,-128.5 1436.5,-128.5 1436.5,-4 1267,-4"/>
<polygon fill="none" stroke="black" points="1269,-104 1269,-126.5 1434.5,-126.5 1434.5,-104 1269,-104"/>
<text xml:space="preserve" text-anchor="start" x="1287.62" y="-110.2" font-family="Times New Roman,serif" font-size="14.00">[000002AFA71C8A70]</text>
<polygon fill="none" stroke="black" points="1269,-79.5 1269,-102 1340.25,-102 1340.25,-79.5 1269,-79.5"/>
<text xml:space="preserve" text-anchor="start" x="1272" y="-85.7" font-family="Times New Roman,serif" font-size="14.00">is_valid = 1</text>
<polygon fill="none" stroke="black" points="1342.25,-79.5 1342.25,-102 1434.5,-102 1434.5,-79.5 1342.25,-79.5"/>
<text xml:space="preserve" text-anchor="start" x="1345.25" y="-85.7" font-family="Times New Roman,serif" font-size="14.00">verify_used = 0</text>
<polygon fill="none" stroke="black" points="1269,-55 1269,-77.5 1434.5,-77.5 1434.5,-55 1269,-55"/>
<text xml:space="preserve" text-anchor="start" x="1310.5" y="-61.2" font-family="Times New Roman,serif" font-size="14.00">type = variable</text>
<polygon fill="none" stroke="black" points="1269,-30.5 1269,-53 1434.5,-53 1434.5,-30.5 1269,-30.5"/>
<text xml:space="preserve" text-anchor="start" x="1332.25" y="-36.7" font-family="Times New Roman,serif" font-size="14.00">val = x</text>
<polygon fill="lightgreen" stroke="none" points="1269,-6 1269,-28.5 1340.25,-28.5 1340.25,-6 1269,-6"/>
<polygon fill="none" stroke="black" points="1269,-6 1269,-28.5 1340.25,-28.5 1340.25,-6 1269,-6"/>
<text xml:space="preserve" text-anchor="start" x="1280.62" y="-12.2" font-family="Times New Roman,serif" font-size="14.00">left = nil</text>
<polygon fill="lightgreen" stroke="none" points="1342.25,-6 1342.25,-28.5 1434.5,-28.5 1434.5,-6 1342.25,-6"/>
<polygon fill="none" stroke="black" points="1342.25,-6 1342.25,-28.5 1434.5,-28.5 1434.5,-6 1342.25,-6"/>
<text xml:space="preserve" text-anchor="start" x="1360.62" y="-12.2" font-family="Times New Roman,serif" font-size="14.00">right = nil</text>
</g>
<!-- node000002AFA71C8B60&#45;&gt;node000002AFA71C8A70 -->
<g id="edge16" class="edge">
<title>node000002AFA71C8B60:left&#45;&gt;node000002AFA71C8A70:top</title>
<path fill="none" stroke="red" stroke-width="3" d="M1367.5,-173.5C1367.5,-138.59 1416.56,-162.45 1434.5,-132.5 1435.06,-131.57 1435.63,-130.57 1436.17,-129.52"/>
<polygon fill="red" stroke="red" stroke-width="3" points="1439.68,-129.61 1435.71,-119.79 1432.69,-129.94 1439.68,-129.61"/>
</g>
<!-- node000002AFA71C8860 -->
<g id="node18" class="node">
<title>node000002AFA71C8860</title>
<polygon fill="#caab91" stroke="none" points="1471,-4 1471,-128.5 1640.5,-128.5 1640.5,-4 1471,-4"/>
<polygon fill="none" stroke="black" points="1473,-104 1473,-126.5 1638.5,-126.5 1638.5,-104 1473,-104"/>
<text xml:space="preserve" text-anchor="start" x="1493.12" y="-110.2" font-family="Times New Roman,serif" font-size="14.00">[000002AFA71C8860]</text>
<polygon fill="none" stroke="black" points="1473,-79.5 1473,-102 1544.25,-102 1544.25,-79.5 1473,-79.5"/>
<text xml:space="preserve" text-anchor="start" x="1476" y="-85.7" font-family="Times New Roman,serif" font-size="14.00">is_valid = 1</text>
<polygon fill="none" stroke="black" points="1546.25,-79.5 1546.25,-102 1638.5,-102 1638.5,-79.5 1546.25,-79.5"/>
<text xml:space="preserve" text-anchor="start" x="1549.25" y="-85.7" font-family="Times New Roman,serif" font-size="14.00">verify_used = 0</text>
<polygon fill="none" stroke="black" points="1473,-55 1473,-77.5 1638.5,-77.5 1638.5,-55 1473,-55"/>
<text xml:space="preserve" text-anchor="start" x="1520.5" y="-61.2" font-family="Times New Roman,serif" font-size="14.00">type = literal</text>
<polygon fill="none" stroke="black" points="1473,-30.5 1473,-53 1638.5,-53 1638.5,-30.5 1473,-30.5"/>
<text xml:space="preserve" text-anchor="start" x="1536.25" y="-36.7" font-family="Times New Roman,serif" font-size="14.00">val = 1</text>
<polygon fill="lightgreen" stroke="none" points="1473,-6 1473,-28.5 1544.25,-28.5 1544.25,-6 1473,-6"/>
<polygon fill="none" stroke="black" points="1473,-6 1473,-28.5 1544.25,-28.5 1544.25,-6 1473,-6"/>
<text xml:space="preserve" text-anchor="start" x="1484.62" y="-12.2" font-family="Times New Roman,serif" font-size="14.00">left = nil</text>
<polygon fill="lightgreen" stroke="none" points="1546.25,-6 1546.25,-28.5 1638.5,-28.5 1638.5,-6 1546.25,-6"/>
<polygon fill="none" stroke="black" points="1546.25,-6 1546.25,-28.5 1638.5,-28.5 1638.5,-6 1546.25,-6"/>
<text xml:space="preserve" text-anchor="start" x="1564.62" y="-12.2" font-family="Times New Roman,serif" font-size="14.00">right = nil</text>
</g>
<!-- node000002AFA71C8B60&#45;&gt;node000002AFA71C8860 -->
<g id="edge17" class="edge">
<title>node000002AFA71C8B60:right&#45;&gt;node000002AFA71C8860:top</title>
<path fill="none" stroke="blue" stroke-width="3" d="M1539.75,-173.5C1539.75,-138.68 1490.87,-162.38 1473,-132.5 1472.45,-131.57 1471.88,-130.57 1471.33,-129.52"/>
<polygon fill="blue" stroke="blue" stroke-width="3" points="1474.81,-129.94 1471.79,-119.79 1467.82,-129.61 1474.81,-129.94"/>
</g>
</g>
</svg>
